<svg width="197" height="48" viewBox="0 0 197 48" fill="none" xmlns="http://www.w3.org/2000/svg">
<path d="M65.504 18V6.64H68.768C70.5067 6.64 71.9467 7.17867 73.088 8.256C74.24 9.33333 74.816 10.688 74.816 12.32C74.816 13.952 74.24 15.3067 73.088 16.384C71.9467 17.4613 70.5067 18 68.768 18H65.504ZM66.992 16.608H68.768C70.1227 16.608 71.216 16.208 72.048 15.408C72.8907 14.5973 73.312 13.568 73.312 12.32C73.312 11.072 72.8907 10.048 72.048 9.248C71.216 8.43733 70.1227 8.032 68.768 8.032H66.992V16.608ZM80.3793 18.16C79.1739 18.16 78.1713 17.76 77.3713 16.96C76.5819 16.1493 76.1873 15.1627 76.1873 14C76.1873 12.8373 76.5819 11.856 77.3713 11.056C78.1713 10.2453 79.1739 9.84 80.3793 9.84C81.5739 9.84 82.5659 10.2453 83.3553 11.056C84.1553 11.856 84.5553 12.8373 84.5553 14C84.5553 15.1627 84.1553 16.1493 83.3553 16.96C82.5659 17.76 81.5739 18.16 80.3793 18.16ZM78.3633 16.048C78.8859 16.6027 79.5579 16.88 80.3793 16.88C81.2006 16.88 81.8673 16.6027 82.3793 16.048C82.8913 15.4933 83.1473 14.8107 83.1473 14C83.1473 13.1893 82.8913 12.5067 82.3793 11.952C81.8673 11.3973 81.2006 11.12 80.3793 11.12C79.5579 11.12 78.8859 11.3973 78.3633 11.952C77.8513 12.5067 77.5953 13.1893 77.5953 14C77.5953 14.8107 77.8513 15.4933 78.3633 16.048ZM93.2831 18L91.2991 12.256L89.3311 18H88.1151L85.3951 10H86.8351L88.7711 15.84L90.7711 10H91.8271L93.8271 15.84L95.7631 10H97.2191L94.4991 18H93.2831ZM98.7023 18V10H100.078V11.232C100.622 10.304 101.47 9.84 102.622 9.84C103.529 9.84 104.26 10.1333 104.814 10.72C105.369 11.3067 105.646 12.0907 105.646 13.072V18H104.286V13.28C104.286 12.608 104.116 12.08 103.774 11.696C103.433 11.3013 102.974 11.104 102.398 11.104C101.737 11.104 101.182 11.3653 100.734 11.888C100.297 12.4107 100.078 13.1253 100.078 14.032V18H98.7023ZM108.124 18V6H109.5V18H108.124ZM115.661 18.16C114.455 18.16 113.453 17.76 112.653 16.96C111.863 16.1493 111.469 15.1627 111.469 14C111.469 12.8373 111.863 11.856 112.653 11.056C113.453 10.2453 114.455 9.84 115.661 9.84C116.855 9.84 117.847 10.2453 118.637 11.056C119.437 11.856 119.837 12.8373 119.837 14C119.837 15.1627 119.437 16.1493 118.637 16.96C117.847 17.76 116.855 18.16 115.661 18.16ZM113.645 16.048C114.167 16.6027 114.839 16.88 115.661 16.88C116.482 16.88 117.149 16.6027 117.661 16.048C118.173 15.4933 118.429 14.8107 118.429 14C118.429 13.1893 118.173 12.5067 117.661 11.952C117.149 11.3973 116.482 11.12 115.661 11.12C114.839 11.12 114.167 11.3973 113.645 11.952C113.133 12.5067 112.877 13.1893 112.877 14C112.877 14.8107 113.133 15.4933 113.645 16.048ZM125.108 18.16C123.998 18.16 123.065 17.7547 122.308 16.944C121.561 16.1333 121.188 15.152 121.188 14C121.188 12.848 121.561 11.8667 122.308 11.056C123.065 10.2453 123.998 9.84 125.108 9.84C125.694 9.84 126.238 9.97333 126.74 10.24C127.252 10.496 127.646 10.8267 127.924 11.232V10H129.3V18H127.924V16.768C127.646 17.1733 127.252 17.5093 126.74 17.776C126.238 18.032 125.694 18.16 125.108 18.16ZM125.316 16.896C126.105 16.896 126.756 16.6187 127.268 16.064C127.78 15.5093 128.036 14.8213 128.036 14C128.036 13.1787 127.78 12.4907 127.268 11.936C126.756 11.3813 126.105 11.104 125.316 11.104C124.516 11.104 123.86 11.3813 123.348 11.936C122.836 12.4907 122.58 13.1787 122.58 14C122.58 14.8213 122.836 15.5093 123.348 16.064C123.86 16.6187 124.516 16.896 125.316 16.896ZM135.186 18.16C134.076 18.16 133.143 17.7547 132.386 16.944C131.639 16.1333 131.266 15.152 131.266 14C131.266 12.848 131.639 11.8667 132.386 11.056C133.143 10.2453 134.076 9.84 135.186 9.84C135.772 9.84 136.316 9.97333 136.818 10.24C137.33 10.496 137.724 10.8267 138.002 11.232V6H139.378V18H138.002V16.768C137.724 17.1733 137.33 17.5093 136.818 17.776C136.316 18.032 135.772 18.16 135.186 18.16ZM135.394 16.896C136.183 16.896 136.834 16.6187 137.346 16.064C137.858 15.5093 138.114 14.8213 138.114 14C138.114 13.1787 137.858 12.4907 137.346 11.936C136.834 11.3813 136.183 11.104 135.394 11.104C134.594 11.104 133.938 11.3813 133.426 11.936C132.914 12.4907 132.658 13.1787 132.658 14C132.658 14.8213 132.914 15.5093 133.426 16.064C133.938 16.6187 134.594 16.896 135.394 16.896ZM149.379 18.16C148.174 18.16 147.171 17.76 146.371 16.96C145.582 16.1493 145.187 15.1627 145.187 14C145.187 12.8373 145.582 11.856 146.371 11.056C147.171 10.2453 148.174 9.84 149.379 9.84C150.574 9.84 151.566 10.2453 152.355 11.056C153.155 11.856 153.555 12.8373 153.555 14C153.555 15.1627 153.155 16.1493 152.355 16.96C151.566 17.76 150.574 18.16 149.379 18.16ZM147.363 16.048C147.886 16.6027 148.558 16.88 149.379 16.88C150.201 16.88 150.867 16.6027 151.379 16.048C151.891 15.4933 152.147 14.8107 152.147 14C152.147 13.1893 151.891 12.5067 151.379 11.952C150.867 11.3973 150.201 11.12 149.379 11.12C148.558 11.12 147.886 11.3973 147.363 11.952C146.851 12.5067 146.595 13.1893 146.595 14C146.595 14.8107 146.851 15.4933 147.363 16.048ZM155.53 18V10H156.906V11.232C157.45 10.304 158.298 9.84 159.45 9.84C160.357 9.84 161.088 10.1333 161.642 10.72C162.197 11.3067 162.474 12.0907 162.474 13.072V18H161.114V13.28C161.114 12.608 160.944 12.08 160.602 11.696C160.261 11.3013 159.802 11.104 159.226 11.104C158.565 11.104 158.01 11.3653 157.562 11.888C157.125 12.4107 156.906 13.1253 156.906 14.032V18H155.53ZM171.65 18.08C170.914 18.08 170.322 17.872 169.874 17.456C169.426 17.04 169.202 16.432 169.202 15.632V11.264H167.506V10H169.202V7.776H170.578V10H172.882V11.264H170.578V15.456C170.578 15.9573 170.685 16.3093 170.898 16.512C171.111 16.7147 171.447 16.816 171.906 16.816C172.311 16.816 172.637 16.7627 172.882 16.656V17.888C172.498 18.016 172.087 18.08 171.65 18.08ZM176.016 18H174.64V6H176.016V11.232C176.56 10.304 177.408 9.84 178.56 9.84C179.466 9.84 180.197 10.1333 180.752 10.72C181.306 11.3067 181.584 12.0907 181.584 13.072V18H180.224V13.28C180.224 12.608 180.053 12.08 179.712 11.696C179.37 11.3013 178.912 11.104 178.336 11.104C177.674 11.104 177.12 11.3653 176.672 11.888C176.234 12.4107 176.016 13.1253 176.016 14.032V18ZM187.582 18.16C186.355 18.16 185.358 17.7653 184.59 16.976C183.822 16.1867 183.438 15.1947 183.438 14C183.438 12.816 183.827 11.8293 184.606 11.04C185.384 10.24 186.382 9.84 187.598 9.84C188.675 9.84 189.576 10.2027 190.302 10.928C191.038 11.6427 191.406 12.6187 191.406 13.856C191.406 14.016 191.4 14.1547 191.39 14.272H184.83C184.851 15.0187 185.118 15.6427 185.63 16.144C186.152 16.6453 186.808 16.896 187.598 16.896C188.718 16.896 189.55 16.432 190.094 15.504L191.182 16.256C190.403 17.5253 189.203 18.16 187.582 18.16ZM184.926 13.152H189.998C189.891 12.512 189.608 12.0053 189.15 11.632C188.702 11.248 188.168 11.056 187.55 11.056C186.92 11.056 186.355 11.248 185.854 11.632C185.363 12.0053 185.054 12.512 184.926 13.152Z" fill="#231F20" fill-opacity="0.72"/>
<path d="M64.018 43L69.526 30.22H71.848L77.374 43H74.638L73.396 40.084H67.942L66.718 43H64.018ZM70.678 33.658L68.914 37.798H72.424L70.678 33.658ZM81.031 46.762H78.565V34H81.031V35.008C81.259 34.684 81.607 34.402 82.075 34.162C82.543 33.922 83.065 33.802 83.641 33.802C84.829 33.802 85.831 34.264 86.647 35.188C87.463 36.112 87.871 37.216 87.871 38.5C87.871 39.784 87.463 40.888 86.647 41.812C85.831 42.736 84.829 43.198 83.641 43.198C83.065 43.198 82.543 43.078 82.075 42.838C81.607 42.598 81.259 42.316 81.031 41.992V46.762ZM81.445 40.264C81.865 40.72 82.417 40.948 83.101 40.948C83.785 40.948 84.331 40.72 84.739 40.264C85.159 39.808 85.369 39.22 85.369 38.5C85.369 37.78 85.159 37.192 84.739 36.736C84.331 36.28 83.785 36.052 83.101 36.052C82.417 36.052 81.865 36.28 81.445 36.736C81.037 37.192 80.833 37.78 80.833 38.5C80.833 39.22 81.037 39.808 81.445 40.264ZM92.1403 46.762H89.6743V34H92.1403V35.008C92.3683 34.684 92.7163 34.402 93.1843 34.162C93.6523 33.922 94.1743 33.802 94.7503 33.802C95.9383 33.802 96.9403 34.264 97.7563 35.188C98.5723 36.112 98.9803 37.216 98.9803 38.5C98.9803 39.784 98.5723 40.888 97.7563 41.812C96.9403 42.736 95.9383 43.198 94.7503 43.198C94.1743 43.198 93.6523 43.078 93.1843 42.838C92.7163 42.598 92.3683 42.316 92.1403 41.992V46.762ZM92.5543 40.264C92.9743 40.72 93.5263 40.948 94.2103 40.948C94.8943 40.948 95.4403 40.72 95.8483 40.264C96.2683 39.808 96.4783 39.22 96.4783 38.5C96.4783 37.78 96.2683 37.192 95.8483 36.736C95.4403 36.28 94.8943 36.052 94.2103 36.052C93.5263 36.052 92.9743 36.28 92.5543 36.736C92.1463 37.192 91.9423 37.78 91.9423 38.5C91.9423 39.22 92.1463 39.808 92.5543 40.264ZM108.839 43.216C107.831 43.216 106.913 43.018 106.085 42.622C105.269 42.214 104.633 41.65 104.177 40.93L106.175 39.256C106.487 39.724 106.889 40.096 107.381 40.372C107.885 40.636 108.407 40.768 108.947 40.768C109.463 40.768 109.877 40.654 110.189 40.426C110.501 40.198 110.657 39.898 110.657 39.526C110.657 39.166 110.519 38.854 110.243 38.59C109.967 38.326 109.511 38.086 108.875 37.87L107.795 37.492C105.695 36.76 104.645 35.542 104.645 33.838C104.645 32.662 105.047 31.732 105.851 31.048C106.655 30.352 107.693 30.004 108.965 30.004C110.597 30.004 111.941 30.592 112.997 31.768L111.269 33.55C110.657 32.818 109.895 32.452 108.983 32.452C108.515 32.452 108.113 32.554 107.777 32.758C107.441 32.95 107.273 33.226 107.273 33.586C107.273 33.958 107.417 34.252 107.705 34.468C108.005 34.684 108.521 34.924 109.253 35.188L110.279 35.566C112.307 36.322 113.321 37.588 113.321 39.364C113.321 40.504 112.901 41.434 112.061 42.154C111.233 42.862 110.159 43.216 108.839 43.216ZM119.114 43.108C118.106 43.108 117.278 42.832 116.63 42.28C115.994 41.716 115.676 40.906 115.676 39.85V36.16H113.858V34H115.676V31.498H118.142V34H120.68V36.16H118.142V39.364C118.142 39.916 118.262 40.312 118.502 40.552C118.742 40.78 119.132 40.894 119.672 40.894C120.056 40.894 120.392 40.84 120.68 40.732V42.91C120.248 43.042 119.726 43.108 119.114 43.108ZM129.805 41.848C128.881 42.748 127.765 43.198 126.457 43.198C125.149 43.198 124.033 42.748 123.109 41.848C122.185 40.936 121.723 39.82 121.723 38.5C121.723 37.192 122.185 36.082 123.109 35.17C124.033 34.258 125.149 33.802 126.457 33.802C127.765 33.802 128.881 34.258 129.805 35.17C130.729 36.082 131.191 37.192 131.191 38.5C131.191 39.82 130.729 40.936 129.805 41.848ZM126.457 40.894C127.093 40.894 127.621 40.672 128.041 40.228C128.473 39.772 128.689 39.196 128.689 38.5C128.689 37.804 128.473 37.234 128.041 36.79C127.621 36.334 127.093 36.106 126.457 36.106C125.809 36.106 125.269 36.334 124.837 36.79C124.417 37.234 124.207 37.804 124.207 38.5C124.207 39.196 124.417 39.772 124.837 40.228C125.269 40.672 125.809 40.894 126.457 40.894ZM132.969 43V34H135.435V35.44C135.591 34.996 135.873 34.63 136.281 34.342C136.701 34.042 137.163 33.892 137.667 33.892C137.979 33.892 138.255 33.928 138.495 34V36.502C138.099 36.37 137.727 36.304 137.379 36.304C136.791 36.304 136.317 36.52 135.957 36.952C135.609 37.372 135.435 37.954 135.435 38.698V43H132.969ZM143.948 43.198C142.58 43.198 141.44 42.766 140.528 41.902C139.628 41.038 139.178 39.904 139.178 38.5C139.178 37.156 139.628 36.04 140.528 35.152C141.428 34.252 142.556 33.802 143.912 33.802C145.16 33.802 146.21 34.192 147.062 34.972C147.914 35.74 148.34 36.826 148.34 38.23C148.34 38.626 148.328 38.908 148.304 39.076H141.572C141.644 39.664 141.902 40.126 142.346 40.462C142.802 40.786 143.342 40.948 143.966 40.948C145.022 40.948 145.796 40.57 146.288 39.814L148.124 41.182C147.2 42.526 145.808 43.198 143.948 43.198ZM141.662 37.402H145.874C145.766 36.886 145.52 36.496 145.136 36.232C144.764 35.968 144.332 35.836 143.84 35.836C143.336 35.836 142.874 35.968 142.454 36.232C142.034 36.496 141.77 36.886 141.662 37.402Z" fill="#231F20"/>
<path d="M41.0085 31.4872C39.7848 30.9638 38.7425 30.0915 38.0117 28.9792C37.2808 27.867 36.8939 26.564 36.8991 25.2332C36.915 24.0452 37.2331 22.8808 37.8236 21.8499C38.4141 20.8189 39.2575 19.9553 40.2741 19.3406C40.5042 19.1984 40.703 19.0111 40.8586 18.79C41.0141 18.5688 41.1232 18.3184 41.1793 18.0538C41.2353 17.7893 41.2372 17.5162 41.1846 17.2509C41.1321 16.9857 41.0264 16.7338 40.8737 16.5106C39.9598 15.1815 38.7683 14.0666 37.3816 13.2428C35.9948 12.419 34.4458 11.906 32.8415 11.7391C34.3347 9.3694 35.0124 6.57651 34.7712 3.78597C34.7241 3.27926 34.4826 2.81048 34.0973 2.478C33.712 2.14553 33.213 1.9752 32.7048 2.00277C29.2707 2.30885 26.0872 3.92856 23.8181 6.52425C22.3796 8.19101 21.3646 10.1802 20.8591 12.3231C19.8147 11.9696 18.7213 11.7825 17.6189 11.7684C15.5778 11.8262 13.5864 12.4105 11.8376 13.4644C10.0888 14.5184 8.64197 16.0063 7.63742 17.784C3.86202 24.3387 6.1716 34.1609 10.2614 40.073C11.902 42.4422 14.364 45.9988 18.0778 45.9988C18.1511 45.9988 18.2253 45.9988 18.2995 45.9948C19.5439 45.9242 20.7621 45.609 21.8845 45.0671C22.781 44.6127 23.7701 44.3707 24.7751 44.3601C25.7202 44.3716 26.6497 44.6029 27.4899 45.0358C28.7177 45.6167 30.0557 45.9277 31.4138 45.9479C35.2399 45.8757 37.4998 42.5749 39.1501 40.1628C40.4523 38.2468 41.4713 36.153 42.1755 33.946C42.3256 33.4645 42.2889 32.9441 42.0726 32.4885C41.8564 32.0328 41.4764 31.6753 41.0085 31.4872V31.4872ZM26.8464 9.13561C27.8968 7.9606 29.2131 7.05387 30.6853 6.49109C30.3632 8.07556 29.6505 9.55454 28.612 10.7938C27.9071 11.6396 27.0494 12.3452 26.0837 12.874L26.0779 12.876C26.0212 12.8994 25.9646 12.9209 25.9079 12.9443C25.5348 13.0908 25.0739 13.2725 24.7184 13.3896C25.0617 11.8163 25.7932 10.3538 26.8464 9.13561V9.13561ZM35.8493 37.9052C34.2419 40.2528 32.9773 41.9188 31.3405 41.9481C30.5494 41.9456 29.7714 41.7448 29.0778 41.3641C27.7371 40.7108 26.2665 40.3677 24.7751 40.3601C23.2319 40.3679 21.7096 40.7181 20.3181 41.3855C19.6415 41.7309 18.9035 41.9393 18.1462 41.9988H18.0866C16.4606 41.9988 14.7116 39.4734 13.5505 37.7957C10.6452 33.5964 7.96554 25.2293 11.1042 19.78C11.7624 18.6008 12.7142 17.6118 13.8673 16.9089C15.0204 16.206 16.3356 15.8132 17.6853 15.7684L17.7526 15.7664C18.8912 15.8632 20.003 16.1642 21.0349 16.6551C21.2976 16.7586 21.5564 16.8621 21.8132 16.9578C21.8786 16.9852 21.946 17.0106 22.0144 17.0321C22.7261 17.3183 23.4821 17.4789 24.2487 17.5067C25.3342 17.4204 26.3946 17.1351 27.3767 16.6649C28.7612 15.9929 30.2832 15.6526 31.822 15.6707C33.4681 15.7351 35.0483 16.3344 36.323 17.3778C35.2336 18.3815 34.3662 19.602 33.7766 20.961C33.1869 22.3199 32.8881 23.7871 32.8992 25.2684V25.2704C32.8879 27.0636 33.3317 28.8304 34.1891 30.4055C35.0464 31.9805 36.2894 33.3123 37.8015 34.2762C37.275 35.5487 36.6209 36.7645 35.8493 37.9052V37.9052Z" fill="#231F20"/>
</svg>
