<svg width="55" height="32" viewBox="0 0 55 32" fill="none" xmlns="http://www.w3.org/2000/svg">
<path d="M15.681 11.621C15.681 12.2809 15.7523 12.8138 15.8772 13.204C16.0199 13.5964 16.1983 14.0245 16.448 14.4883C16.5372 14.6288 16.5728 14.7715 16.5728 14.8963C16.5728 15.0747 16.4658 15.2531 16.2339 15.4314L15.1124 16.1784C14.9769 16.2761 14.8156 16.3319 14.6487 16.3389C14.4703 16.3389 14.2919 16.2497 14.1158 16.0892C13.8762 15.8316 13.662 15.5516 13.4759 15.2531C13.2765 14.9111 13.0921 14.5607 12.9229 14.2029C11.5361 15.8395 9.79024 16.6577 7.6899 16.6577C6.19603 16.6577 5.00317 16.2319 4.13137 15.3779C3.25958 14.5217 2.81588 13.3846 2.81588 11.9599C2.81588 10.4482 3.34876 9.21739 4.43461 8.29431C5.52045 7.36901 6.9608 6.90524 8.79358 6.90524C9.40005 6.90524 10.0221 6.95875 10.6799 7.04794C11.3398 7.13712 12.0177 7.27982 12.7267 7.44036V6.14047C12.7267 4.78707 12.4435 3.84392 11.8906 3.2932C11.322 2.74025 10.361 2.47492 8.99202 2.47492C8.36772 2.47492 7.72558 2.54404 7.06783 2.70457C6.41008 2.86511 5.76794 3.06132 5.14587 3.31104C4.94304 3.40185 4.73449 3.47931 4.52156 3.54292C4.42986 3.57248 4.33464 3.58972 4.2384 3.5942C3.98868 3.5942 3.86381 3.41583 3.86381 3.04348V2.17168C3.86381 1.88629 3.89949 1.67224 3.98868 1.54738C4.12336 1.3855 4.29453 1.25789 4.48812 1.17503C5.11019 0.853958 5.85713 0.5864 6.72892 0.372353C7.63643 0.140021 8.57033 0.026844 9.50707 0.0356751C11.6252 0.0356751 13.1726 0.51728 14.1693 1.47826C15.1481 2.43701 15.6453 3.89744 15.6453 5.85507V11.621H15.681ZM8.4569 14.3278C9.0433 14.3278 9.64754 14.2207 10.2897 14.0067C10.9296 13.7926 11.5004 13.4025 11.9798 12.8696C12.2652 12.5307 12.4792 12.1561 12.5862 11.728C12.691 11.3021 12.7646 10.7848 12.7646 10.1806V9.43367C12.2244 9.30199 11.6773 9.20075 11.1258 9.13043C10.5712 9.05997 10.0127 9.02422 9.45356 9.02341C8.26069 9.02341 7.3889 9.25529 6.80027 9.7369C6.21387 10.2163 5.9307 10.8919 5.9307 11.7815C5.9307 12.6176 6.14252 13.2419 6.58845 13.6678C7.01432 14.1137 7.63639 14.3278 8.4569 14.3278ZM22.749 16.2497C22.4279 16.2497 22.2139 16.1962 22.0712 16.0713C21.9285 15.9643 21.8036 15.7146 21.6966 15.3779L17.516 1.61873C17.4347 1.38802 17.3808 1.14855 17.3555 0.90524C17.3555 0.619844 17.4981 0.45931 17.7813 0.45931H19.5271C19.8638 0.45931 20.0957 0.515051 20.2183 0.637682C20.3633 0.744705 20.4703 0.994426 20.5751 1.33333L23.5673 13.1148L26.3432 1.33333C26.4324 0.976589 26.5394 0.744705 26.6799 0.637682C26.8938 0.506495 27.1429 0.444226 27.3934 0.45931H28.8159C29.1548 0.45931 29.3867 0.515051 29.5294 0.637682C29.6698 0.744705 29.7969 0.994426 29.866 1.33333L32.6776 13.2575L35.7568 1.33333C35.8638 0.976589 35.9887 0.744705 36.1135 0.637682C36.3201 0.506556 36.5628 0.44412 36.807 0.45931H38.4636C38.7468 0.45931 38.9095 0.604237 38.9095 0.90524C38.9095 0.994426 38.8895 1.08361 38.8716 1.19064C38.8437 1.34278 38.8019 1.49204 38.7468 1.63657L34.4591 15.3935C34.3521 15.7503 34.2272 15.9799 34.0845 16.087C33.8837 16.2158 33.6473 16.2782 33.409 16.2653H31.8772C31.5405 16.2653 31.3086 16.2118 31.1637 16.087C31.0232 15.9621 30.8984 15.7302 30.8293 15.3735L28.0689 3.89521L25.3265 15.3556C25.2373 15.7124 25.1325 15.9443 24.992 16.0691C24.8471 16.194 24.5974 16.2475 24.2785 16.2475L22.749 16.2497ZM45.6163 16.7291C44.691 16.7291 43.7657 16.6221 42.8761 16.4103C41.9864 16.1962 41.293 15.9643 40.8293 15.6968C40.5439 15.5385 40.3499 15.3601 40.2785 15.1996C40.209 15.0422 40.1726 14.8722 40.1715 14.7001V13.7926C40.1715 13.4203 40.3142 13.2419 40.5795 13.2419C40.6866 13.2419 40.7936 13.2598 40.9006 13.2954C41.0076 13.3311 41.1682 13.4025 41.3465 13.4738C41.9508 13.7414 42.6085 13.9532 43.3042 14.0959C44.0154 14.2386 44.7089 14.3099 45.4223 14.3099C46.5416 14.3099 47.4157 14.1137 48.0199 13.7213C48.3095 13.5463 48.5477 13.2978 48.7102 13.0009C48.8728 12.7041 48.9538 12.3695 48.9452 12.0312C48.9517 11.8021 48.9127 11.5739 48.8304 11.36C48.7481 11.146 48.6242 10.9505 48.4658 10.7848C48.1447 10.4482 47.5383 10.1449 46.6665 9.85953L44.0868 9.05686C42.7869 8.64883 41.8259 8.04459 41.2395 7.24415C40.6656 6.50542 40.352 5.59766 40.3476 4.66221C40.3476 3.91527 40.5104 3.25752 40.8293 2.68673C41.1503 2.11817 41.5762 1.61873 42.1113 1.22854C42.6464 0.818283 43.2484 0.51505 43.9619 0.303233C44.6754 0.0891865 45.4223 0 46.2049 0C46.5951 0 47.0054 0.0178374 47.3978 0.0713491C47.8058 0.124861 48.1782 0.196209 48.5528 0.267558C48.9095 0.356744 49.2484 0.445931 49.5673 0.550725C49.8883 0.657749 50.1381 0.764772 50.3164 0.871795C50.5266 0.977572 50.7096 1.13013 50.8516 1.31773C50.9665 1.49087 51.022 1.69667 51.0099 1.90412V2.74025C51.0099 3.11483 50.8672 3.31104 50.5996 3.31104C50.3627 3.28388 50.1333 3.21119 49.924 3.09699C48.8488 2.62201 47.6835 2.38545 46.5082 2.40357C45.4937 2.40357 44.691 2.56187 44.1403 2.90078C43.5873 3.23969 43.3042 3.75474 43.3042 4.48384C43.3042 4.98328 43.4825 5.41137 43.8393 5.74805C44.1938 6.08696 44.8515 6.42586 45.7947 6.7291L48.3231 7.52731C49.6029 7.93757 50.5305 8.50836 51.0812 9.23746C51.6319 9.96655 51.8995 10.8027 51.8995 11.728C51.8995 12.4928 51.7389 13.1884 51.4379 13.7926C51.1169 14.3991 50.6888 14.932 50.1381 15.3601C49.5851 15.806 48.9274 16.1249 48.1626 16.3567C47.3599 16.6042 46.526 16.7291 45.6163 16.7291ZM48.9809 25.3802C43.1258 29.7057 34.6174 32 27.3042 32C17.0522 32 7.81699 28.2096 0.838174 21.9086C0.287449 21.4114 0.784662 20.7336 1.44464 21.126C8.98979 25.5028 18.2986 28.1561 27.9262 28.1561C34.4235 28.1561 41.5583 26.8027 48.1269 24.0268C49.1057 23.5808 49.9418 24.6667 48.9809 25.3802ZM51.4201 22.602C50.6709 21.6433 46.4703 22.1405 44.5662 22.3724C43.9976 22.4437 43.9084 21.9443 44.4257 21.5697C47.7702 19.2218 53.2707 19.8974 53.9106 20.68C54.5505 21.4827 53.7323 26.9811 50.5996 29.6143C50.1202 30.0245 49.6565 29.8105 49.8705 29.2776C50.584 27.5162 52.167 23.5474 51.4201 22.602Z" fill="#808080"/>
</svg>
