<svg width="48" height="48" viewBox="0 0 48 48" fill="none" xmlns="http://www.w3.org/2000/svg">
<path d="M33.9998 22H18.8198L25.4198 15.42C25.7964 15.0434 26.008 14.5326 26.008 14C26.008 13.4674 25.7964 12.9566 25.4198 12.58C25.0432 12.2034 24.5324 11.9918 23.9998 11.9918C23.4672 11.9918 22.9564 12.2034 22.5798 12.58L12.5798 22.58C12.3977 22.7702 12.255 22.9945 12.1598 23.24C11.9598 23.7269 11.9598 24.2731 12.1598 24.76C12.255 25.0055 12.3977 25.2298 12.5798 25.42L22.5798 35.42C22.7657 35.6075 22.9869 35.7563 23.2306 35.8578C23.4744 35.9593 23.7358 36.0116 23.9998 36.0116C24.2638 36.0116 24.5252 35.9593 24.7689 35.8578C25.0127 35.7563 25.2339 35.6075 25.4198 35.42C25.6073 35.2341 25.756 35.0129 25.8576 34.7692C25.9591 34.5254 26.0114 34.264 26.0114 34C26.0114 33.736 25.9591 33.4746 25.8576 33.2309C25.756 32.9871 25.6073 32.7659 25.4198 32.58L18.8198 26H33.9998C34.5302 26 35.0389 25.7893 35.414 25.4142C35.7891 25.0391 35.9998 24.5304 35.9998 24C35.9998 23.4696 35.7891 22.9609 35.414 22.5858C35.0389 22.2107 34.5302 22 33.9998 22Z" fill="#231F20"/>
</svg>
