<svg width="30" height="30" viewBox="0 0 30 30" fill="none" xmlns="http://www.w3.org/2000/svg">
<path d="M22.4004 8.275C22.2736 7.96956 22.0308 7.72684 21.7254 7.6C21.5751 7.53595 21.4138 7.50197 21.2504 7.5H8.75041C8.41889 7.5 8.10095 7.6317 7.86653 7.86612C7.63211 8.10054 7.50041 8.41848 7.50041 8.75C7.50041 9.08152 7.63211 9.39946 7.86653 9.63388C8.10095 9.8683 8.41889 10 8.75041 10H18.2379L7.86291 20.3625C7.74575 20.4787 7.65276 20.617 7.5893 20.7693C7.52584 20.9216 7.49316 21.085 7.49316 21.25C7.49316 21.415 7.52584 21.5784 7.5893 21.7307C7.65276 21.883 7.74575 22.0213 7.86291 22.1375C7.97912 22.2547 8.11737 22.3477 8.26969 22.4111C8.42202 22.4746 8.5854 22.5072 8.75041 22.5072C8.91543 22.5072 9.07881 22.4746 9.23113 22.4111C9.38346 22.3477 9.52171 22.2547 9.63791 22.1375L20.0004 11.7625V21.25C20.0004 21.5815 20.1321 21.8995 20.3665 22.1339C20.6009 22.3683 20.9189 22.5 21.2504 22.5C21.5819 22.5 21.8999 22.3683 22.1343 22.1339C22.3687 21.8995 22.5004 21.5815 22.5004 21.25V8.75C22.4984 8.58665 22.4645 8.42528 22.4004 8.275Z" fill="#194F59"/>
</svg>
