<svg width="30" height="30" viewBox="0 0 30 30" fill="none" xmlns="http://www.w3.org/2000/svg">
<path d="M27.4161 14.6134C27.2882 11.7783 26.7773 8.04124 26.3939 5.46391C26.1384 3.78866 24.7327 2.5 22.944 2.5H7.09989C5.31105 2.5 3.90553 3.78866 3.64998 5.46391C3.26665 8.1701 2.88333 11.7783 2.62778 14.6134C2.5 17.3196 2.5 21.0567 2.5 23.7629C2.5 25.567 3.90553 26.9845 5.69436 27.1134C8.37764 27.3711 12.0831 27.5 14.8941 27.5C17.7053 27.5 21.4106 27.2423 24.0939 27.1134C25.8828 26.9845 27.2882 25.567 27.2882 23.7629C27.5439 21.0567 27.5439 17.3196 27.4161 14.6134ZM15.0219 14.7423C11.6998 14.7423 8.88874 12.0361 8.88874 8.5567C8.88874 8.04124 9.27206 7.52577 9.91094 7.52577C10.5498 7.52577 10.9331 8.04124 10.9331 8.5567C10.9331 10.8763 12.8497 12.6804 15.0219 12.6804C17.1941 12.6804 19.1108 10.7474 19.1108 8.5567C19.1108 8.04124 19.494 7.52577 20.1329 7.52577C20.7717 7.52577 21.1551 7.91237 21.1551 8.5567C21.1551 11.9072 18.3441 14.7423 15.0219 14.7423Z" fill="#231F20" fill-opacity="0.72"/>
</svg>
