<svg width="48" height="48" viewBox="0 0 48 48" fill="none" xmlns="http://www.w3.org/2000/svg">
<path d="M34 21.9999H18.82L25.42 15.4199C25.7966 15.0433 26.0082 14.5325 26.0082 13.9999C26.0082 13.4673 25.7966 12.9565 25.42 12.5799C25.0434 12.2033 24.5326 11.9917 24 11.9917C23.4674 11.9917 22.9566 12.2033 22.58 12.5799L12.58 22.5799C12.398 22.7701 12.2552 22.9944 12.16 23.2399C11.96 23.7268 11.96 24.273 12.16 24.7599C12.2552 25.0054 12.398 25.2297 12.58 25.4199L22.58 35.4199C22.766 35.6073 22.9872 35.7561 23.2309 35.8577C23.4746 35.9592 23.736 36.0115 24 36.0115C24.2641 36.0115 24.5255 35.9592 24.7692 35.8577C25.0129 35.7561 25.2341 35.6073 25.42 35.4199C25.6075 35.234 25.7563 35.0128 25.8578 34.769C25.9594 34.5253 26.0116 34.2639 26.0116 33.9999C26.0116 33.7359 25.9594 33.4744 25.8578 33.2307C25.7563 32.987 25.6075 32.7658 25.42 32.5799L18.82 25.9999H34C34.5305 25.9999 35.0392 25.7892 35.4143 25.4141C35.7893 25.039 36 24.5303 36 23.9999C36 23.4694 35.7893 22.9607 35.4143 22.5857C35.0392 22.2106 34.5305 21.9999 34 21.9999Z" fill="#231F20"/>
</svg>
