<svg width="48" height="48" viewBox="0 0 48 48" fill="none" xmlns="http://www.w3.org/2000/svg">
<rect width="48" height="48" rx="24" fill="white"/>
<path d="M25.88 23.9996L31.6134 18.2796C31.8644 18.0285 32.0055 17.688 32.0055 17.3329C32.0055 16.9779 31.8644 16.6373 31.6134 16.3863C31.3623 16.1352 31.0218 15.9941 30.6667 15.9941C30.3116 15.9941 29.9711 16.1352 29.72 16.3863L24 22.1196L18.28 16.3863C18.029 16.1352 17.6884 15.9941 17.3334 15.9941C16.9783 15.9941 16.6378 16.1352 16.3867 16.3863C16.1356 16.6373 15.9946 16.9779 15.9946 17.3329C15.9946 17.688 16.1356 18.0285 16.3867 18.2796L22.12 23.9996L16.3867 29.7196C16.2617 29.8435 16.1625 29.991 16.0949 30.1535C16.0272 30.316 15.9923 30.4902 15.9923 30.6663C15.9923 30.8423 16.0272 31.0166 16.0949 31.179C16.1625 31.3415 16.2617 31.489 16.3867 31.6129C16.5107 31.7379 16.6581 31.8371 16.8206 31.9048C16.9831 31.9725 17.1574 32.0073 17.3334 32.0073C17.5094 32.0073 17.6837 31.9725 17.8461 31.9048C18.0086 31.8371 18.1561 31.7379 18.28 31.6129L24 25.8796L29.72 31.6129C29.844 31.7379 29.9915 31.8371 30.1539 31.9048C30.3164 31.9725 30.4907 32.0073 30.6667 32.0073C30.8427 32.0073 31.017 31.9725 31.1795 31.9048C31.342 31.8371 31.4894 31.7379 31.6134 31.6129C31.7383 31.489 31.8375 31.3415 31.9052 31.179C31.9729 31.0166 32.0078 30.8423 32.0078 30.6663C32.0078 30.4902 31.9729 30.316 31.9052 30.1535C31.8375 29.991 31.7383 29.8435 31.6134 29.7196L25.88 23.9996Z" fill="#231F20"/>
</svg>
