<svg width="81" height="32" viewBox="0 0 81 32" fill="none" xmlns="http://www.w3.org/2000/svg">
<path d="M20.2373 16.4411V0H24.2473V10.1119C26.2189 7.76274 28.9323 7.08438 31.6057 7.08438C36.0835 7.08438 41.056 10.1053 41.056 16.6249C41.056 17.4035 41.0059 18.152 40.8555 18.8571C41.6575 15.6725 45.1128 14.4962 50.533 14.3659C52.2373 14.3058 54.1922 14.3058 55.746 14.3058V13.8546C55.746 10.8972 53.8881 9.69758 50.6333 9.69758C48.2272 9.69758 46.4729 10.7001 46.2724 12.4043H42.0117C42.4662 8.09357 47.0242 6.99081 50.9875 6.99081C54.543 6.99081 57.6541 7.89307 59.0577 10.3993L57.6007 7.59232H62.3125L69.1796 21.3768L76.0468 7.58897H80.2005L67.7694 32H63.2715L66.8471 25.183L59.061 10.5464C59.4954 11.3985 59.7293 12.401 59.7293 13.6541V21.8747C59.7293 23.0309 59.7627 24.1805 59.863 25.2331H56.1404C56.0401 24.381 55.9866 23.5288 55.9866 22.6767C53.9716 25.1295 51.5756 25.8847 48.2339 25.8847C43.2882 25.8847 40.6416 23.2782 40.6416 20.2206C40.6416 19.7193 40.6917 19.2715 40.7653 18.8672C39.7627 23.0309 36.2206 25.8379 31.5188 25.8379C28.6115 25.8379 25.858 24.7853 24.1671 22.7302C24.1671 23.5322 24.117 24.381 24.0334 25.183H20.0902C20.1571 23.8797 20.2239 22.3258 20.2239 21.0226V17.5138H4.08354C4.30075 21.1729 6.81704 23.3283 10.2757 23.3283C12.675 23.3283 14.8037 22.3258 15.5155 20.2206H19.6591C18.8571 24.5313 14.279 25.985 10.3358 25.985C3.1746 26.0551 0 22.0886 0 16.7753C0 10.914 3.28154 7.05096 10.4127 7.05096C16.0535 7.05096 20.2038 10.0117 20.2373 16.4277V16.4411ZM50.7703 17.0526C47.1111 17.1663 44.8555 17.8312 44.8555 20.2272C44.8555 21.7811 46.0585 23.4687 49.2164 23.4687C53.4269 23.4687 55.6825 21.1629 55.6825 17.4069V16.9724C54.1788 16.9724 52.3743 16.9925 50.7235 17.0459H50.7636L50.7703 17.0526ZM30.5196 23.3183C34.2289 23.3183 36.7886 20.6249 36.7886 16.5681C36.7886 12.5113 34.2222 9.81788 30.4628 9.81788C26.7536 9.81788 24.147 12.5113 24.147 16.5681C24.147 20.6249 26.7034 23.3183 30.4127 23.3183H30.513H30.5196ZM15.9833 14.9173C15.8363 11.1579 13.1295 9.75105 10.2189 9.75105C7.06433 9.75105 4.55806 11.335 4.15372 14.9173H15.9833Z" fill="#808080"/>
</svg>
