<svg width="248" height="64" viewBox="0 0 248 64" fill="none" xmlns="http://www.w3.org/2000/svg">
<g clip-path="url(#clip0_2044_3349)">
<path d="M56.44 45.4549H55.5641V40.5218H49.684V45.4549H48.8154V35.167H49.684V39.7879H55.5641V35.167H56.44V45.4549Z" fill="#231F20"/>
<path d="M61.7476 45.5963C61.0966 45.5963 60.5092 45.4365 59.9839 45.1154C59.4587 44.7958 59.0503 44.349 58.7573 43.7763C58.4658 43.2037 58.3193 42.563 58.3193 41.8513V41.548C58.3193 40.8126 58.4614 40.1513 58.747 39.5624C59.0325 38.9735 59.4291 38.5103 59.9381 38.1745C60.447 37.8371 60.999 37.6699 61.5923 37.6699C62.52 37.6699 63.2569 37.9866 63.7999 38.6198C64.3444 39.2531 64.6167 40.1187 64.6167 41.2166V41.6901H59.1612V41.8528C59.1612 42.7199 59.4098 43.4419 59.907 44.019C60.4041 44.5961 61.03 44.8846 61.7832 44.8846C62.2359 44.8846 62.6354 44.8017 62.9817 44.6375C63.3279 44.4732 63.6431 44.2084 63.9242 43.8459L64.4554 44.2483C63.831 45.1465 62.9284 45.5963 61.7476 45.5963ZM61.5923 38.389C60.956 38.389 60.4204 38.6213 59.9839 39.0889C59.5489 39.555 59.2826 40.1823 59.1894 40.9695H63.7762V40.8777C63.7525 40.1424 63.5424 39.5446 63.1474 39.083C62.7508 38.6198 62.2315 38.389 61.5923 38.389Z" fill="#231F20"/>
<path d="M67.1066 45.4547H66.2588V34.6016H67.1066V45.4547Z" fill="#231F20"/>
<path d="M73.7489 43.512C73.7489 43.0933 73.5802 42.7559 73.2428 42.5014C72.9055 42.2469 72.398 42.0486 71.7203 41.9051C71.0411 41.7616 70.5159 41.5959 70.1401 41.4109C69.7657 41.2245 69.4875 40.9981 69.307 40.7288C69.125 40.461 69.0348 40.1355 69.0348 39.7537C69.0348 39.1515 69.2863 38.6529 69.7909 38.2593C70.2954 37.8657 70.9405 37.6689 71.7262 37.6689C72.5785 37.6689 73.2621 37.8805 73.7785 38.3007C74.2949 38.7224 74.5523 39.2729 74.5523 39.9505H73.7045C73.7045 39.5037 73.518 39.1308 73.1422 38.8334C72.7679 38.536 72.2959 38.388 71.7262 38.388C71.1699 38.388 70.723 38.5123 70.3872 38.7594C70.0498 39.0065 69.8826 39.3276 69.8826 39.7242C69.8826 40.1059 70.0232 40.4018 70.3028 40.6104C70.5839 40.8206 71.0944 41.0129 71.8372 41.186C72.5785 41.3606 73.1348 41.5471 73.5047 41.7438C73.8746 41.9421 74.1499 42.1803 74.3274 42.457C74.5064 42.7352 74.5967 43.0711 74.5967 43.4676C74.5967 44.1127 74.3363 44.6291 73.8155 45.0153C73.2946 45.4015 72.6155 45.5953 71.7765 45.5953C70.8858 45.5953 70.1637 45.3793 69.6103 44.9487C69.057 44.5181 68.7803 43.9722 68.7803 43.3123H69.6281C69.6607 43.8064 69.8693 44.1912 70.2525 44.4678C70.6372 44.7431 71.1447 44.8821 71.775 44.8821C72.3639 44.8821 72.8389 44.7519 73.2029 44.493C73.5669 44.2355 73.7489 43.9071 73.7489 43.512Z" fill="#231F20"/>
<path d="M76.2305 35.6014C76.2305 35.4416 76.2823 35.3069 76.3858 35.1974C76.4894 35.0879 76.6314 35.0332 76.8105 35.0332C76.9895 35.0332 77.1315 35.0879 77.2381 35.1974C77.3431 35.3069 77.3964 35.4416 77.3964 35.6014C77.3964 35.7597 77.3431 35.8943 77.2381 36.0009C77.1315 36.1089 76.9895 36.1622 76.8105 36.1622C76.6314 36.1622 76.4894 36.1089 76.3858 36.0009C76.2823 35.8929 76.2305 35.7597 76.2305 35.6014ZM77.2262 45.4543H76.3784V37.809H77.2262V45.4543Z" fill="#231F20"/>
<path d="M80.1555 37.8095L80.1836 39.1175C80.4707 38.647 80.8287 38.2874 81.2578 38.0403C81.6869 37.7932 82.1604 37.6689 82.6783 37.6689C83.498 37.6689 84.1076 37.8998 84.5086 38.3614C84.9096 38.8231 85.1108 39.5155 85.1167 40.4388V45.4562H84.2763V40.4314C84.2719 39.7493 84.1269 39.2403 83.8413 38.9059C83.5557 38.5715 83.1 38.4043 82.4741 38.4043C81.9518 38.4043 81.4872 38.5686 81.0862 38.8956C80.6837 39.224 80.3849 39.665 80.191 40.2213V45.4577H79.3506V37.8125H80.1555V37.8095Z" fill="#231F20"/>
<path d="M86.8394 41.5619C86.8394 40.3648 87.1042 39.4164 87.6339 38.718C88.1651 38.0181 88.8842 37.6689 89.7927 37.6689C90.8344 37.6689 91.626 38.0832 92.1675 38.9118L92.2104 37.8095H93.0006V45.2994C93.0006 46.2834 92.7253 47.0631 92.1734 47.6387C91.6215 48.2143 90.8758 48.5013 89.9333 48.5013C89.4006 48.5013 88.8931 48.383 88.4107 48.1447C87.9284 47.9065 87.5466 47.5899 87.2685 47.1948L87.7419 46.6858C88.3412 47.4212 89.0514 47.7881 89.8756 47.7881C90.5828 47.7881 91.1333 47.5795 91.5298 47.1623C91.9249 46.745 92.1305 46.1665 92.1439 45.4281V44.4664C91.6023 45.2195 90.8137 45.5968 89.7764 45.5968C88.8901 45.5968 88.1799 45.2432 87.6428 44.5374C87.1057 43.8316 86.8379 42.8772 86.8379 41.6758L86.8394 41.5619ZM87.6946 41.7098C87.6946 42.6849 87.8899 43.4543 88.282 44.0166C88.6726 44.5788 89.2245 44.8614 89.9362 44.8614C90.9764 44.8614 91.7148 44.3953 92.1483 43.4617V39.9076C91.95 39.4179 91.6659 39.045 91.2931 38.7875C90.9202 38.5301 90.4733 38.4028 89.951 38.4028C89.2408 38.4028 88.686 38.6825 88.2909 39.2403C87.8929 39.7981 87.6946 40.6223 87.6946 41.7098Z" fill="#231F20"/>
<path d="M101.227 41.7097C101.227 42.9008 100.964 43.8478 100.436 44.5462C99.9088 45.246 99.1986 45.5952 98.3093 45.5952C97.2454 45.5952 96.439 45.2002 95.8916 44.4086L95.8561 45.4547H95.0645V34.6016H95.9049V38.9191C96.442 38.0861 97.2381 37.6688 98.293 37.6688C99.1971 37.6688 99.9118 38.0136 100.437 38.7046C100.962 39.3941 101.226 40.3544 101.226 41.5839L101.227 41.7097ZM100.381 41.5617C100.381 40.5541 100.186 39.7758 99.7934 39.2269C99.4028 38.6779 98.8509 38.4027 98.1392 38.4027C97.5976 38.4027 97.1389 38.5359 96.7616 38.8022C96.3843 39.0686 96.0987 39.4577 95.9064 39.9711V43.4187C96.331 44.3804 97.0797 44.8598 98.1539 44.8598C98.8509 44.8598 99.3969 44.5846 99.7904 44.0327C100.183 43.4838 100.381 42.6596 100.381 41.5617Z" fill="#231F20"/>
<path d="M102.577 41.5185C102.577 40.7831 102.719 40.1217 103.005 39.5328C103.29 38.9439 103.693 38.4852 104.214 38.1582C104.734 37.8312 105.323 37.667 105.983 37.667C107 37.667 107.825 38.0236 108.456 38.7368C109.088 39.4499 109.403 40.3954 109.403 41.5732V41.7508C109.403 42.4906 109.259 43.1564 108.975 43.7468C108.69 44.3386 108.289 44.7944 107.771 45.114C107.253 45.4351 106.661 45.5949 105.997 45.5949C104.985 45.5949 104.16 45.2383 103.527 44.5251C102.892 43.8119 102.577 42.8664 102.577 41.6886V41.5185ZM103.425 41.7523C103.425 42.6652 103.662 43.4168 104.135 44.0028C104.609 44.5902 105.23 44.8832 105.997 44.8832C106.76 44.8832 107.379 44.5902 107.852 44.0028C108.326 43.4168 108.562 42.643 108.562 41.6812V41.5185C108.562 40.934 108.453 40.3999 108.237 39.9146C108.019 39.4292 107.716 39.0534 107.325 38.7871C106.935 38.5207 106.486 38.3876 105.983 38.3876C105.229 38.3876 104.615 38.6835 104.14 39.2739C103.663 39.8657 103.425 40.6396 103.425 41.5954V41.7523Z" fill="#231F20"/>
<path d="M114.607 38.5301C114.428 38.4975 114.237 38.4813 114.034 38.4813C113.506 38.4813 113.059 38.6277 112.695 38.9237C112.329 39.2181 112.069 39.6457 111.914 40.2065V45.4562H111.073V37.811H111.9L111.914 39.0258C112.362 38.1217 113.08 37.6689 114.07 37.6689C114.305 37.6689 114.491 37.7 114.629 37.7607L114.607 38.5301Z" fill="#231F20"/>
<path d="M115.35 41.5619C115.35 40.3648 115.615 39.4164 116.145 38.718C116.676 38.0181 117.395 37.6689 118.303 37.6689C119.345 37.6689 120.137 38.0832 120.678 38.9118L120.721 37.8095H121.511V45.2994C121.511 46.2834 121.236 47.0631 120.684 47.6387C120.132 48.2143 119.387 48.5013 118.444 48.5013C117.911 48.5013 117.404 48.383 116.921 48.1447C116.439 47.9065 116.057 47.5899 115.779 47.1948L116.253 46.6858C116.852 47.4212 117.562 47.7881 118.386 47.7881C119.094 47.7881 119.644 47.5795 120.041 47.1623C120.436 46.745 120.641 46.1665 120.655 45.4281V44.4664C120.113 45.2195 119.324 45.5968 118.287 45.5968C117.401 45.5968 116.691 45.2432 116.154 44.5374C115.616 43.8301 115.349 42.8772 115.349 41.6758L115.35 41.5619ZM116.205 41.7098C116.205 42.6849 116.401 43.4543 116.793 44.0166C117.183 44.5788 117.735 44.8614 118.447 44.8614C119.487 44.8614 120.225 44.3953 120.659 43.4617V39.9076C120.461 39.4179 120.177 39.045 119.804 38.7875C119.431 38.5301 118.984 38.4028 118.462 38.4028C117.752 38.4028 117.197 38.6825 116.802 39.2403C116.404 39.7981 116.205 40.6223 116.205 41.7098Z" fill="#231F20"/>
<path d="M54.6382 57.3968C54.6382 56.8272 54.437 56.3759 54.0375 56.043C53.6365 55.7115 52.9041 55.3949 51.8402 55.096C50.7764 54.7971 49.9981 54.4716 49.5083 54.118C48.8114 53.6193 48.4622 52.9639 48.4622 52.1545C48.4622 51.3673 48.7848 50.7281 49.4329 50.2354C50.081 49.7427 50.9096 49.4971 51.9172 49.4971C52.6008 49.4971 53.2119 49.6288 53.7519 49.8936C54.2905 50.157 54.7092 50.5254 55.0067 50.9959C55.3041 51.4665 55.452 51.9917 55.452 52.5718H54.5761C54.5761 51.8674 54.3364 51.3022 53.8555 50.8746C53.3746 50.447 52.7295 50.2324 51.9187 50.2324C51.1315 50.2324 50.5056 50.4085 50.0395 50.7592C49.5734 51.1114 49.3397 51.57 49.3397 52.1353C49.3397 52.6591 49.5498 53.0867 49.9685 53.4166C50.3872 53.7466 51.059 54.0381 51.9823 54.2911C52.9056 54.5441 53.6054 54.806 54.0804 55.0768C54.5568 55.3476 54.9149 55.6716 55.1546 56.0489C55.3943 56.4262 55.5156 56.8716 55.5156 57.3835C55.5156 58.1944 55.1916 58.8439 54.5435 59.3337C53.8954 59.8234 53.0417 60.0691 51.9823 60.0691C51.2573 60.0691 50.5914 59.9403 49.9863 59.6799C49.3811 59.421 48.9209 59.0585 48.6072 58.5924C48.2936 58.1263 48.1367 57.5907 48.1367 56.9885H49.0067C49.0067 57.7135 49.2775 58.2861 49.8191 58.7063C50.3606 59.1251 51.0812 59.3352 51.9808 59.3352C52.7813 59.3352 53.4249 59.1576 53.9102 58.8055C54.3956 58.4503 54.6382 57.9813 54.6382 57.3968Z" fill="#231F20"/>
<path d="M59.2226 58.1677L59.3498 58.8247L59.52 58.1322L61.3577 52.2818H62.0783L63.8938 58.0834L64.0921 58.8883L64.2548 58.1455L65.8232 52.2803H66.6992L64.4738 59.9255H63.7532L61.7898 53.862L61.698 53.4447L61.6063 53.8694L59.6768 59.9255H58.9563L56.7383 52.2803H57.6068L59.2226 58.1677Z" fill="#231F20"/>
<path d="M70.9205 60.068C70.2695 60.068 69.682 59.9082 69.1568 59.5871C68.6315 59.2675 68.2231 58.8206 67.9302 58.248C67.6387 57.6754 67.4922 57.0347 67.4922 56.323V56.0197C67.4922 55.2843 67.6342 54.6229 67.9198 54.034C68.2054 53.4451 68.6019 52.982 69.1109 52.6462C69.6199 52.3088 70.1718 52.1416 70.7651 52.1416C71.6929 52.1416 72.4297 52.4582 72.9727 53.0915C73.5172 53.7248 73.7895 54.5904 73.7895 55.6883V56.1617H68.3341V56.3245C68.3341 57.1916 68.5827 57.9136 69.0798 58.4907C69.577 59.0677 70.2029 59.3563 70.956 59.3563C71.4088 59.3563 71.8083 59.2734 72.1545 59.1092C72.5007 58.9449 72.8159 58.6801 73.097 58.3176L73.6282 58.72C73.0038 59.6182 72.1027 60.068 70.9205 60.068ZM70.7651 52.8607C70.1289 52.8607 69.5933 53.093 69.1568 53.5606C68.7218 54.0266 68.4554 54.654 68.3622 55.4412H72.9491V55.3494C72.9254 54.6141 72.7153 54.0163 72.3202 53.5546C71.9237 53.0915 71.4058 52.8607 70.7651 52.8607Z" fill="#231F20"/>
<path d="M75.0635 56.0329C75.0635 54.8463 75.3283 53.8993 75.858 53.195C76.3892 52.4907 77.1083 52.1386 78.0168 52.1386C79.0496 52.1386 79.8353 52.5455 80.3768 53.3607V49.0713H81.2173V59.9244H80.4256L80.3901 58.9064C79.8486 59.6787 79.0511 60.0649 78.002 60.0649C77.1216 60.0649 76.4099 59.7113 75.8714 59.0011C75.3328 58.2923 75.0635 57.335 75.0635 56.1291V56.0329ZM75.9187 56.1824C75.9187 57.1575 76.114 57.9269 76.5061 58.4891C76.8967 59.0514 77.4486 59.334 78.1603 59.334C79.2005 59.334 79.9403 58.8738 80.3783 57.9565V54.3654C79.9403 53.3711 79.2064 52.8739 78.1737 52.8739C77.4634 52.8739 76.9086 53.1536 76.5135 53.7114C76.117 54.2707 75.9187 55.0934 75.9187 56.1824Z" fill="#231F20"/>
<path d="M86.3101 60.068C85.6591 60.068 85.0717 59.9082 84.5464 59.5871C84.0211 59.2675 83.6128 58.8206 83.3198 58.248C83.0283 57.6754 82.8818 57.0347 82.8818 56.323V56.0197C82.8818 55.2843 83.0239 54.6229 83.3094 54.034C83.595 53.4451 83.9916 52.982 84.5005 52.6462C85.0095 52.3088 85.5614 52.1416 86.1548 52.1416C87.0825 52.1416 87.8193 52.4582 88.3624 53.0915C88.9069 53.7248 89.1791 54.5904 89.1791 55.6883V56.1617H83.7237V56.3245C83.7237 57.1916 83.9723 57.9136 84.4695 58.4907C84.9666 59.0677 85.5925 59.3563 86.3456 59.3563C86.7984 59.3563 87.1979 59.2734 87.5441 59.1092C87.8903 58.9449 88.2055 58.6801 88.4866 58.3176L89.0178 58.72C88.3949 59.6182 87.4923 60.068 86.3101 60.068ZM86.1548 52.8607C85.5185 52.8607 84.9829 53.093 84.5464 53.5606C84.1114 54.0266 83.8451 54.654 83.7519 55.4412H88.3387V55.3494C88.315 54.6141 88.1049 54.0163 87.7098 53.5546C87.3133 53.0915 86.7954 52.8607 86.1548 52.8607Z" fill="#231F20"/>
<path d="M91.5652 52.2802L91.5933 53.5882C91.8803 53.1177 92.2384 52.7581 92.6675 52.511C93.0966 52.2639 93.5701 52.1396 94.0879 52.1396C94.9076 52.1396 95.5173 52.3705 95.9182 52.8321C96.3192 53.2938 96.5204 53.9862 96.5264 54.9095V59.927H95.6859V54.9021C95.6815 54.22 95.5365 53.711 95.2509 53.3751C94.9654 53.0407 94.5096 52.8735 93.8837 52.8735C93.3614 52.8735 92.8968 53.0378 92.4959 53.3648C92.0934 53.6933 91.7945 54.1342 91.6007 54.6905V59.927H90.7588V52.2817L91.5652 52.2802Z" fill="#231F20"/>
<path d="M64.4856 25.1005H47.5142V21.7329L55.5234 13.1968C56.6228 11.9954 57.4366 10.9463 57.9634 10.0511C58.4901 9.15597 58.7535 8.30518 58.7535 7.50026C58.7535 6.40089 58.4753 5.53679 57.9205 4.90646C57.3656 4.27614 56.571 3.96246 55.5397 3.96246C54.4285 3.96246 53.5526 4.34568 52.9119 5.11065C52.2712 5.87562 51.9516 6.88177 51.9516 8.1291H47.0215C47.0215 6.62136 47.381 5.24382 48.1016 3.99649C48.8222 2.74916 49.8387 1.77112 51.1541 1.06238C52.4695 0.353632 53.9595 0 55.627 0C58.1779 0 60.1591 0.612568 61.5707 1.83622C62.9823 3.05988 63.6881 4.78957 63.6881 7.02234C63.6881 8.24599 63.3714 9.4948 62.7352 10.7628C62.1004 12.0324 61.0114 13.512 59.4696 15.2017L53.8411 21.1366H64.4871L64.4856 25.1005Z" fill="#231F20"/>
<path d="M84.4675 25.1005H67.4962V21.7329L75.5054 13.1968C76.6048 11.9954 77.4186 10.9463 77.9453 10.0511C78.4721 9.15597 78.7354 8.30518 78.7354 7.50026C78.7354 6.40089 78.4573 5.53679 77.9024 4.90646C77.3475 4.27762 76.553 3.96246 75.5217 3.96246C74.4105 3.96246 73.5345 4.34568 72.8938 5.11065C72.2532 5.87562 71.9336 6.88177 71.9336 8.1291H67.002C67.002 6.62136 67.3615 5.24382 68.0821 3.99649C68.8027 2.74916 69.8192 1.77112 71.1346 1.06238C72.45 0.353632 73.9399 0 75.6075 0C78.1584 0 80.1396 0.612568 81.5512 1.83622C82.9627 3.05988 83.6685 4.78957 83.6685 7.02234C83.6685 8.24599 83.3519 9.4948 82.7157 10.7628C82.0809 12.0324 80.9919 13.512 79.4501 15.2017L73.8216 21.1366H84.4675V25.1005Z" fill="#231F20"/>
<path d="M31.852 0.339844V20.9822H5.10177V0.339844H0V25.0985H36.9523V0.339844H31.852Z" fill="#231F20"/>
<path d="M0 59.9247H5.10177V39.2824H31.852V59.9247H36.9523V35.166H0V59.9247Z" fill="#231F20"/>
<path d="M163.906 35.9004H160.405V45.3863H159.542V35.9004H156.049V35.1709H163.907V35.9004H163.906Z" fill="#231F20"/>
<path d="M166.281 39.0788C166.558 38.6246 166.91 38.2739 167.34 38.0253C167.771 37.7782 168.241 37.6539 168.75 37.6539C169.564 37.6539 170.171 37.8833 170.567 38.342C170.965 38.8007 171.167 39.4872 171.171 40.4046V45.3865H170.337V40.3987C170.332 39.7195 170.189 39.215 169.904 38.8835C169.622 38.5506 169.169 38.3849 168.548 38.3849C168.028 38.3849 167.57 38.5462 167.169 38.8717C166.769 39.1972 166.473 39.6352 166.281 40.1871V45.3865H165.446V34.6104H166.281V39.0788Z" fill="#231F20"/>
<path d="M176.271 45.5254C175.626 45.5254 175.041 45.3656 174.52 45.049C174 44.7309 173.594 44.287 173.304 43.7203C173.014 43.1506 172.869 42.5144 172.869 41.8086V41.5067C172.869 40.7773 173.011 40.1203 173.294 39.5359C173.576 38.9514 173.97 38.4913 174.476 38.1569C174.981 37.8225 175.528 37.6553 176.118 37.6553C177.04 37.6553 177.771 37.9704 178.311 38.5993C178.853 39.2281 179.122 40.0878 179.122 41.1768V41.6458H173.705V41.8071C173.705 42.6683 173.952 43.3844 174.445 43.9585C174.938 44.5311 175.559 44.8167 176.308 44.8167C176.756 44.8167 177.154 44.7353 177.497 44.5711C177.842 44.4083 178.154 44.1449 178.434 43.7854L178.961 44.1864C178.341 45.0801 177.444 45.5254 176.271 45.5254ZM176.117 38.3699C175.485 38.3699 174.954 38.6022 174.52 39.0639C174.088 39.5285 173.825 40.1499 173.732 40.9312H178.285V40.8394C178.261 40.11 178.054 39.5152 177.66 39.058C177.267 38.6008 176.752 38.3699 176.117 38.3699Z" fill="#231F20"/>
<path d="M185.83 37.7949L185.894 38.6427C186.431 37.9843 187.159 37.6543 188.076 37.6543C189.054 37.6543 189.724 38.0405 190.09 38.8114C190.622 38.0405 191.383 37.6543 192.37 37.6543C193.194 37.6543 193.805 37.894 194.208 38.3734C194.61 38.8528 194.811 39.5734 194.811 40.5381V45.3854H192.777V40.5322C192.777 40.1016 192.692 39.7864 192.524 39.5867C192.355 39.3884 192.058 39.2863 191.633 39.2863C191.025 39.2863 190.605 39.5778 190.369 40.1593L190.377 45.3839H188.35V40.5396C188.35 40.0986 188.262 39.779 188.091 39.5823C187.919 39.3855 187.623 39.2863 187.208 39.2863C186.632 39.2863 186.216 39.526 185.959 40.0039V45.3839H183.932V37.7919H185.83V37.7949Z" fill="#231F20"/>
<path d="M200.796 45.3864C200.703 45.2044 200.635 44.9765 200.592 44.7057C200.101 45.2547 199.463 45.5269 198.676 45.5269C197.931 45.5269 197.316 45.3109 196.828 44.8818C196.338 44.4512 196.094 43.9082 196.094 43.2542C196.094 42.4493 196.393 41.8323 196.987 41.4017C197.584 40.9711 198.446 40.7536 199.574 40.7492H200.508V40.3157C200.508 39.9635 200.417 39.6824 200.238 39.4737C200.058 39.2622 199.774 39.1571 199.386 39.1571C199.044 39.1571 198.776 39.2385 198.582 39.4027C198.389 39.567 198.291 39.7919 198.291 40.076H196.264C196.264 39.6365 196.4 39.2296 196.671 38.8567C196.942 38.4824 197.326 38.1879 197.822 37.9749C198.318 37.7618 198.874 37.6553 199.492 37.6553C200.428 37.6553 201.17 37.8905 201.719 38.3611C202.27 38.8301 202.543 39.4915 202.543 40.3438V43.633C202.548 44.3536 202.649 44.8981 202.845 45.2665V45.3864H200.796ZM199.12 43.9748C199.418 43.9748 199.695 43.9082 199.948 43.7765C200.201 43.6419 200.388 43.4643 200.509 43.2394V41.9344H199.751C198.736 41.9344 198.196 42.285 198.131 42.9864L198.124 43.1048C198.124 43.3578 198.213 43.5664 198.39 43.7292C198.568 43.8934 198.81 43.9748 199.12 43.9748Z" fill="#231F20"/>
<path d="M206.916 42.3414L206.187 43.0709V45.3865H204.158V34.6104H206.187V40.5807L206.58 40.0761L208.523 37.796H210.959L208.215 40.9609L211.198 45.388H208.869L206.916 42.3414Z" fill="#231F20"/>
<path d="M211.963 35.8298C211.963 35.5265 212.063 35.2749 212.268 35.0781C212.47 34.8813 212.749 34.7852 213.099 34.7852C213.446 34.7852 213.721 34.8828 213.928 35.0781C214.134 35.2749 214.237 35.5265 214.237 35.8298C214.237 36.139 214.132 36.3906 213.925 36.5873C213.716 36.7841 213.441 36.8818 213.101 36.8818C212.759 36.8818 212.485 36.7841 212.275 36.5873C212.066 36.392 211.963 36.139 211.963 35.8298ZM214.117 45.3867H212.083V37.7947H214.117V45.3867Z" fill="#231F20"/>
<path d="M217.711 37.7949L217.774 38.6708C218.317 37.9931 219.045 37.6543 219.956 37.6543C220.759 37.6543 221.359 37.8896 221.752 38.3616C222.146 38.835 222.346 39.5408 222.356 40.4819V45.3854H220.327V40.5189C220.327 40.0883 220.234 39.7746 220.046 39.5793C219.86 39.3855 219.549 39.2878 219.114 39.2878C218.543 39.2878 218.115 39.5334 217.83 40.0202V45.3854H215.803V37.7934H217.711V37.7949Z" fill="#231F20"/>
<path d="M223.656 41.5339C223.656 40.3709 223.934 39.4313 224.487 38.7211C225.042 38.0109 225.788 37.6543 226.729 37.6543C227.562 37.6543 228.21 37.9399 228.673 38.511L228.758 37.7949H230.595V45.1338C230.595 45.7982 230.444 46.3767 230.143 46.8665C229.842 47.3592 229.416 47.7321 228.87 47.9895C228.323 48.247 227.68 48.3757 226.948 48.3757C226.39 48.3757 225.849 48.2647 225.32 48.0428C224.791 47.8209 224.391 47.5338 224.12 47.1831L225.019 45.9476C225.523 46.5143 226.137 46.797 226.856 46.797C227.395 46.797 227.814 46.6534 228.113 46.3649C228.411 46.0779 228.561 45.6695 228.561 45.1412V44.7329C228.093 45.2626 227.478 45.5259 226.714 45.5259C225.803 45.5259 225.064 45.1694 224.501 44.4562C223.937 43.743 223.654 42.796 223.654 41.6182L223.656 41.5339ZM225.684 41.6789C225.684 42.3684 225.822 42.9114 226.097 43.3035C226.374 43.6971 226.753 43.891 227.234 43.891C227.851 43.891 228.293 43.6587 228.561 43.194V39.9862C228.289 39.5216 227.852 39.2878 227.248 39.2878C226.763 39.2878 226.38 39.4876 226.102 39.8871C225.823 40.288 225.684 40.8843 225.684 41.6789Z" fill="#231F20"/>
<path d="M235.563 41.4777C235.563 40.7482 235.705 40.0912 235.988 39.5068C236.27 38.9223 236.67 38.4666 237.186 38.1411C237.703 37.8156 238.289 37.6543 238.944 37.6543C239.955 37.6543 240.771 38.0094 241.4 38.7167C242.026 39.4254 242.34 40.365 242.34 41.5339V41.71C242.34 42.4453 242.198 43.1052 241.915 43.6927C241.633 44.2801 241.235 44.7328 240.718 45.0495C240.205 45.3676 239.617 45.5259 238.957 45.5259C237.951 45.5259 237.134 45.1708 236.506 44.4635C235.875 43.7548 235.562 42.8152 235.562 41.6463V41.4777H235.563ZM236.405 41.71C236.405 42.617 236.64 43.3612 237.111 43.9442C237.58 44.5257 238.197 44.8172 238.959 44.8172C239.716 44.8172 240.33 44.5257 240.801 43.9442C241.27 43.3612 241.505 42.5933 241.505 41.6389V41.4777C241.505 40.8991 241.399 40.3679 241.183 39.8856C240.968 39.4032 240.666 39.0304 240.279 38.767C239.89 38.5036 239.446 38.3704 238.946 38.3704C238.197 38.3704 237.587 38.6634 237.114 39.2508C236.642 39.8382 236.406 40.6062 236.406 41.5561L236.405 41.71Z" fill="#231F20"/>
<path d="M244.404 45.3865V38.4826H243.149V37.7945H244.404V36.8742C244.404 36.0989 244.602 35.5011 244.997 35.0853C245.392 34.6696 245.944 34.4609 246.649 34.4609C246.968 34.4609 247.264 34.5009 247.541 34.5793L247.477 35.2747C247.243 35.2185 246.989 35.1904 246.714 35.1904C246.251 35.1904 245.89 35.3354 245.634 35.6239C245.376 35.9125 245.247 36.3223 245.247 36.8505V37.7931H247.057V38.4811H245.247V45.3851H244.404V45.3865Z" fill="#231F20"/>
<path d="M161.569 59.9947C161.485 59.755 161.432 59.4029 161.408 58.9353C161.114 59.3186 160.738 59.6145 160.282 59.8201C159.826 60.0288 159.343 60.1338 158.834 60.1338C158.104 60.1338 157.514 59.9296 157.062 59.5242C156.611 59.1158 156.385 58.6009 156.385 57.981C156.385 57.2412 156.693 56.6567 157.307 56.2261C157.922 55.7956 158.779 55.581 159.878 55.581H161.401V54.7184C161.401 54.1754 161.234 53.7492 160.899 53.437C160.565 53.1263 160.078 52.9695 159.437 52.9695C158.853 52.9695 158.369 53.1204 157.984 53.4178C157.601 53.7167 157.409 54.0792 157.409 54.4994L156.567 54.492C156.567 53.8868 156.848 53.3645 157.409 52.9236C157.969 52.4827 158.66 52.2607 159.479 52.2607C160.325 52.2607 160.992 52.4723 161.482 52.8955C161.97 53.3187 162.222 53.9105 162.237 54.6681V58.2606C162.237 58.993 162.314 59.5435 162.468 59.9089V59.9933L161.569 59.9947ZM158.933 59.3911C159.493 59.3911 159.997 59.2564 160.437 58.9856C160.88 58.7134 161.201 58.3509 161.402 57.8981V56.2276H159.9C159.063 56.238 158.409 56.3904 157.935 56.6863C157.463 56.9852 157.227 57.3936 157.227 57.9114C157.227 58.3376 157.385 58.6897 157.7 58.9708C158.017 59.2505 158.427 59.3911 158.933 59.3911Z" fill="#231F20"/>
<path d="M172.516 58.0668C172.516 57.6481 172.348 57.3137 172.014 57.0621C171.68 56.8091 171.175 56.6138 170.502 56.4703C169.829 56.3267 169.306 56.164 168.933 55.9776C168.562 55.7941 168.285 55.5692 168.105 55.3014C167.924 55.0365 167.836 54.7125 167.836 54.3337C167.836 53.7344 168.086 53.2388 168.586 52.8482C169.086 52.4575 169.726 52.2607 170.508 52.2607C171.354 52.2607 172.033 52.4694 172.547 52.8881C173.059 53.3068 173.315 53.8558 173.315 54.529H172.473C172.473 54.0822 172.286 53.7152 171.915 53.4193C171.542 53.1263 171.073 52.9784 170.508 52.9784C169.956 52.9784 169.513 53.1012 169.179 53.3453C168.845 53.5909 168.677 53.912 168.677 54.3041C168.677 54.6814 168.817 54.9744 169.095 55.1845C169.373 55.3916 169.88 55.5825 170.617 55.7556C171.354 55.9287 171.906 56.1122 172.273 56.309C172.64 56.5058 172.912 56.7425 173.091 57.0177C173.269 57.2929 173.358 57.6273 173.358 58.0209C173.358 58.6616 173.099 59.1736 172.582 59.5568C172.066 59.9415 171.391 60.1338 170.558 60.1338C169.675 60.1338 168.957 59.9193 168.408 59.4902C167.858 59.0611 167.584 58.521 167.584 57.867H168.426C168.458 58.3568 168.666 58.74 169.046 59.0123C169.428 59.286 169.931 59.4236 170.558 59.4236C171.143 59.4236 171.615 59.2964 171.976 59.0389C172.335 58.7829 172.516 58.4589 172.516 58.0668Z" fill="#231F20"/>
<path d="M175.981 52.4023L176.009 53.6378C176.29 53.1806 176.641 52.8373 177.061 52.6065C177.483 52.3771 177.949 52.2617 178.464 52.2617C179.661 52.2617 180.421 52.7544 180.744 53.7369C181.014 53.2649 181.377 52.8994 181.831 52.6449C182.285 52.3904 182.786 52.2617 183.333 52.2617C184.961 52.2617 185.791 53.1525 185.823 54.928V59.9943H184.981V54.9916C184.977 54.3125 184.83 53.8109 184.542 53.4839C184.255 53.1554 183.786 52.9912 183.135 52.9912C182.531 53.0015 182.022 53.1954 181.605 53.5786C181.189 53.9589 180.957 54.4235 180.911 54.9709V59.9943H180.069V54.928C180.064 54.277 179.911 53.7931 179.61 53.4735C179.308 53.1525 178.844 52.9912 178.218 52.9912C177.69 52.9912 177.235 53.1421 176.857 53.4454C176.478 53.7458 176.197 54.1926 176.015 54.7875V59.9943H175.173V52.4008H175.981V52.4023Z" fill="#231F20"/>
<path d="M192.699 59.9947C192.615 59.755 192.562 59.4029 192.538 58.9353C192.244 59.3186 191.868 59.6145 191.412 59.8201C190.956 60.0288 190.472 60.1338 189.963 60.1338C189.234 60.1338 188.644 59.9296 188.192 59.5242C187.741 59.1158 187.515 58.6009 187.515 57.981C187.515 57.2412 187.822 56.6567 188.436 56.2261C189.052 55.7956 189.909 55.581 191.008 55.581H192.531V54.7184C192.531 54.1754 192.363 53.7492 192.029 53.437C191.695 53.1263 191.208 52.9695 190.567 52.9695C189.983 52.9695 189.499 53.1204 189.114 53.4178C188.731 53.7167 188.539 54.0792 188.539 54.4994L187.697 54.492C187.697 53.8868 187.978 53.3645 188.539 52.9236C189.099 52.4827 189.79 52.2607 190.609 52.2607C191.455 52.2607 192.122 52.4723 192.612 52.8955C193.1 53.3187 193.352 53.9105 193.367 54.6681V58.2606C193.367 58.993 193.444 59.5435 193.597 59.9089V59.9933L192.699 59.9947ZM190.061 59.3911C190.622 59.3911 191.125 59.2564 191.566 58.9856C192.008 58.7134 192.329 58.3509 192.531 57.8981V56.2276H191.029C190.191 56.238 189.537 56.3904 189.064 56.6863C188.592 56.9852 188.355 57.3936 188.355 57.9114C188.355 58.3376 188.513 58.6897 188.829 58.9708C189.145 59.2505 189.555 59.3911 190.061 59.3911Z" fill="#231F20"/>
<path d="M199.04 53.1184C198.862 53.0859 198.673 53.0696 198.471 53.0696C197.948 53.0696 197.504 53.2146 197.141 53.5061C196.779 53.7991 196.521 54.2237 196.366 54.7815V59.9943H195.531V52.4008H196.352L196.366 53.6082C196.81 52.71 197.523 52.2617 198.505 52.2617C198.739 52.2617 198.924 52.2928 199.06 52.3535L199.04 53.1184Z" fill="#231F20"/>
<path d="M202.16 50.4609V52.4022H203.732V53.0917H202.16V58.1565C202.16 58.5782 202.236 58.8919 202.388 59.0975C202.541 59.3017 202.794 59.4068 203.149 59.4068C203.289 59.4068 203.516 59.3831 203.829 59.3357L203.863 60.0164C203.644 60.0948 203.344 60.1362 202.965 60.1362C202.39 60.1362 201.971 59.9676 201.709 59.6332C201.447 59.2988 201.316 58.806 201.316 58.1565V53.0917H199.919V52.4022H201.316V50.4609H202.16Z" fill="#231F20"/>
<path d="M208.037 60.1353C207.392 60.1353 206.809 59.974 206.287 59.6589C205.765 59.3393 205.359 58.8954 205.071 58.3302C204.779 57.7605 204.636 57.1228 204.636 56.417V56.1166C204.636 55.3872 204.778 54.7287 205.06 54.1443C205.343 53.5598 205.737 53.1011 206.241 52.7667C206.746 52.4323 207.293 52.2637 207.883 52.2637C208.805 52.2637 209.536 52.5803 210.076 53.2077C210.618 53.838 210.886 54.6977 210.886 55.7867V56.2557H205.469V56.417C205.469 57.2796 205.716 57.9958 206.21 58.5684C206.703 59.1425 207.324 59.428 208.073 59.428C208.521 59.428 208.919 59.3467 209.262 59.1824C209.607 59.0197 209.918 58.7563 210.199 58.3967L210.726 58.7977C210.107 59.6885 209.212 60.1353 208.037 60.1353ZM207.882 52.9783C207.25 52.9783 206.719 53.2106 206.286 53.6723C205.853 54.1369 205.59 54.7568 205.495 55.5396H210.05V55.4478C210.026 54.7184 209.817 54.1236 209.425 53.6649C209.033 53.2092 208.52 52.9783 207.882 52.9783Z" fill="#231F20"/>
<path d="M216.043 53.1184C215.864 53.0859 215.676 53.0696 215.474 53.0696C214.951 53.0696 214.506 53.2146 214.145 53.5061C213.782 53.7991 213.524 54.2237 213.37 54.7815V59.9943H212.535V52.4008H213.355L213.368 53.6082C213.814 52.71 214.527 52.2617 215.509 52.2617C215.743 52.2617 215.928 52.2928 216.062 52.3535L216.043 53.1184Z" fill="#231F20"/>
<path d="M223.668 59.4266C224.254 59.4266 224.744 59.2609 225.137 58.9309C225.532 58.6024 225.747 58.1763 225.781 57.6495H226.587C226.564 58.1141 226.419 58.5344 226.152 58.9176C225.886 59.2978 225.531 59.5967 225.09 59.8113C224.648 60.0288 224.174 60.1353 223.67 60.1353C222.674 60.1353 221.884 59.7876 221.302 59.0966C220.719 58.4027 220.428 57.4735 220.428 56.3031V56.0501C220.428 55.3029 220.559 54.6415 220.821 54.0644C221.085 53.4903 221.459 53.0435 221.947 52.7327C222.436 52.4191 223.007 52.2607 223.664 52.2607C224.495 52.2607 225.182 52.5078 225.723 53.005C226.263 53.5007 226.552 54.1532 226.589 54.9625H225.782C225.744 54.3677 225.531 53.8883 225.139 53.5229C224.748 53.1574 224.255 52.9769 223.664 52.9769C222.906 52.9769 222.317 53.2491 221.898 53.7981C221.48 54.3441 221.271 55.112 221.271 56.0989V56.3445C221.271 57.3122 221.48 58.0668 221.898 58.6098C222.317 59.1558 222.908 59.4266 223.668 59.4266Z" fill="#231F20"/>
<path d="M228.157 50.2112C228.157 50.0529 228.209 49.9197 228.311 49.8102C228.415 49.7007 228.555 49.6475 228.733 49.6475C228.912 49.6475 229.052 49.7007 229.158 49.8102C229.264 49.9197 229.316 50.0529 229.316 50.2112C229.316 50.3695 229.264 50.5027 229.158 50.6092C229.052 50.7158 228.912 50.7705 228.733 50.7705C228.555 50.7705 228.415 50.7172 228.311 50.6092C228.211 50.5012 228.157 50.3695 228.157 50.2112ZM229.147 59.9945H228.305V52.4011H229.147V59.9945Z" fill="#231F20"/>
<path d="M232.747 50.4609V52.4022H234.318V53.0917H232.747V58.1565C232.747 58.5782 232.823 58.8919 232.975 59.0975C233.127 59.3017 233.38 59.4068 233.735 59.4068C233.876 59.4068 234.102 59.3831 234.416 59.3357L234.45 60.0164C234.231 60.0948 233.931 60.1362 233.552 60.1362C232.976 60.1362 232.558 59.9676 232.297 59.6332C232.034 59.2988 231.904 58.806 231.904 58.1565V53.0917H230.507V52.4022H231.904V50.4609H232.747Z" fill="#231F20"/>
<path d="M238.725 58.7884L240.942 52.4023H241.846L238.604 61.286L238.435 61.6796C238.019 62.5999 237.376 63.063 236.506 63.063C236.304 63.063 236.088 63.0305 235.861 62.9639L235.853 62.27L236.288 62.3114C236.7 62.3114 237.034 62.2093 237.288 62.0081C237.543 61.8039 237.759 61.4547 237.938 60.959L238.309 59.9336L235.446 52.4053H236.367L238.725 58.7884Z" fill="#231F20"/>
<path d="M139.308 31.2441H138.868V64.0002H139.308V31.2441Z" fill="#231F20"/>
</g>
<defs>
<clipPath id="clip0_2044_3349">
<rect width="247.541" height="64" fill="white"/>
</clipPath>
</defs>
</svg>
