<svg width="224" height="224" viewBox="0 0 224 224" fill="none" xmlns="http://www.w3.org/2000/svg">
<path d="M224 112C224 173.856 173.856 224 112 224C50.1441 224 0 173.856 0 112C0 50.1441 50.1441 0 112 0C173.856 0 224 50.1441 224 112ZM16.8 112C16.8 164.578 59.4225 207.2 112 207.2C164.578 207.2 207.2 164.578 207.2 112C207.2 59.4225 164.578 16.8 112 16.8C59.4225 16.8 16.8 59.4225 16.8 112Z" fill="#E6E6E7"/>
<path d="M112 8.39999C112 3.7608 108.234 -0.0327759 103.608 0.314804C84.412 1.75706 65.8603 8.12833 49.7761 18.8754C31.3578 31.1821 17.0025 48.6741 8.52549 69.1395C0.0484774 89.6048 -2.1695 112.124 2.15205 133.85C6.47359 155.576 17.1406 175.532 32.804 191.196C48.4675 206.859 68.424 217.526 90.1499 221.848C111.876 226.169 134.395 223.952 154.861 215.475C175.326 206.997 192.818 192.642 205.125 174.224C215.872 158.14 222.243 139.588 223.685 120.392C224.033 115.766 220.239 112 215.6 112C210.961 112 207.238 115.768 206.83 120.389C205.426 136.258 200.056 151.57 191.156 164.89C180.695 180.546 165.827 192.748 148.431 199.953C131.036 207.159 111.894 209.044 93.4274 205.371C74.9604 201.697 57.9974 192.631 44.6834 179.317C31.3695 166.003 22.3025 149.04 18.6292 130.573C14.9559 112.106 16.8412 92.9641 24.0467 75.5685C31.2521 58.173 43.4542 43.3048 59.1097 32.8441C72.4301 23.9437 87.7417 18.5741 103.611 17.1703C108.232 16.7615 112 13.0392 112 8.39999Z" fill="#194F59"/>
<path d="M135.334 98.667H132V88.667C132 86.0148 130.947 83.4713 129.071 81.5959C127.196 79.7206 124.652 78.667 122 78.667H88.667C86.0148 78.667 83.4713 79.7206 81.5959 81.5959C79.7206 83.4713 78.667 86.0148 78.667 88.667V128.667C78.6703 129.325 78.8683 129.967 79.2361 130.513C79.6038 131.059 80.1249 131.484 80.7337 131.734C81.1293 131.92 81.5631 132.012 82.0003 132C82.439 132.003 82.8739 131.919 83.28 131.753C83.6861 131.587 84.0555 131.343 84.367 131.034L93.7337 121.634H98.667V126.434C98.667 129.086 99.7206 131.629 101.596 133.505C103.471 135.38 106.015 136.434 108.667 136.434H131.734L139.634 144.367C139.945 144.676 140.315 144.92 140.721 145.086C141.127 145.252 141.562 145.336 142 145.334C142.438 145.345 142.871 145.254 143.267 145.067C143.876 144.817 144.397 144.392 144.765 143.847C145.132 143.301 145.33 142.658 145.334 142V108.667C145.334 106.015 144.28 103.471 142.405 101.596C140.529 99.7206 137.986 98.667 135.334 98.667ZM98.667 108.667V114.967H92.367C91.9283 114.964 91.4934 115.049 91.0873 115.214C90.6812 115.38 90.3118 115.625 90.0003 115.934L85.3337 120.634V88.667C85.3337 87.7829 85.6848 86.9351 86.31 86.31C86.9351 85.6848 87.7829 85.3337 88.667 85.3337H122C122.884 85.3337 123.732 85.6848 124.357 86.31C124.982 86.9351 125.334 87.7829 125.334 88.667V98.667H108.667C106.015 98.667 103.471 99.7206 101.596 101.596C99.7206 103.471 98.667 106.015 98.667 108.667ZM138.667 133.967L135.334 130.634C135.025 130.319 134.657 130.068 134.251 129.896C133.844 129.725 133.408 129.635 132.967 129.634H108.667C107.783 129.634 106.935 129.282 106.31 128.657C105.685 128.032 105.334 127.184 105.334 126.3V108.667C105.334 107.783 105.685 106.935 106.31 106.31C106.935 105.685 107.783 105.334 108.667 105.334H135.334C136.218 105.334 137.066 105.685 137.691 106.31C138.316 106.935 138.667 107.783 138.667 108.667V133.967Z" fill="#194F59"/>
</svg>
