<svg width="98" height="32" viewBox="0 0 98 32" fill="none" xmlns="http://www.w3.org/2000/svg">
<path d="M42.3635 16.8401C42.3635 21.444 38.7619 24.8365 34.3419 24.8365C29.9219 24.8365 26.3203 21.444 26.3203 16.8401C26.3203 12.2038 29.9219 8.84375 34.3419 8.84375C38.7619 8.84375 42.3635 12.2038 42.3635 16.8401ZM38.8521 16.8401C38.8521 13.9632 36.7646 11.9947 34.3419 11.9947C31.9192 11.9947 29.8318 13.9632 29.8318 16.8401C29.8318 19.6883 31.9192 21.6855 34.3419 21.6855C36.7646 21.6855 38.8521 19.6847 38.8521 16.8401Z" fill="#808080"/>
<path d="M59.6682 16.8401C59.6682 21.444 56.0666 24.8365 51.6466 24.8365C47.2266 24.8365 43.625 21.444 43.625 16.8401C43.625 12.2074 47.2266 8.84375 51.6466 8.84375C56.0666 8.84375 59.6682 12.2038 59.6682 16.8401ZM56.1567 16.8401C56.1567 13.9632 54.0693 11.9947 51.6466 11.9947C49.2239 11.9947 47.1365 13.9632 47.1365 16.8401C47.1365 19.6883 49.2239 21.6855 51.6466 21.6855C54.0693 21.6855 56.1567 19.6847 56.1567 16.8401Z" fill="#808080"/>
<path d="M76.2513 9.32685V23.6828C76.2513 29.5882 72.7686 32.0001 68.6515 32.0001C64.7759 32.0001 62.4433 29.4079 61.5636 27.2881L64.6208 26.0154C65.1652 27.3169 66.4992 28.8527 68.6479 28.8527C71.2833 28.8527 72.9164 27.2268 72.9164 24.1659V23.0159H72.7939C72.0079 23.9857 70.4937 24.8329 68.583 24.8329C64.5848 24.8329 60.9219 21.3503 60.9219 16.869C60.9219 12.3552 64.5848 8.84375 68.583 8.84375C70.4901 8.84375 72.0043 9.69098 72.7939 10.6319H72.9164V9.33046H76.2513V9.32685ZM73.1652 16.869C73.1652 14.0533 71.2869 11.9947 68.8966 11.9947C66.4739 11.9947 64.4442 14.0533 64.4442 16.869C64.4442 19.6558 66.4739 21.6855 68.8966 21.6855C71.2869 21.6855 73.1652 19.6558 73.1652 16.869Z" fill="#808080"/>
<path d="M81.7492 0.912109V24.346H78.3242V0.912109H81.7492Z" fill="#808080"/>
<path d="M95.0946 19.4716L97.8202 21.2887C96.9405 22.5902 94.8207 24.8326 91.1578 24.8326C86.6152 24.8326 83.2227 21.3211 83.2227 16.8362C83.2227 12.0809 86.644 8.83984 90.7648 8.83984C94.9144 8.83984 96.9441 12.1422 97.6075 13.9268L97.9716 14.8353L87.2821 19.2625C88.1005 20.8669 89.3732 21.6852 91.1578 21.6852C92.9459 21.6852 94.1861 20.8056 95.0946 19.4716ZM86.7053 16.5947L93.8509 13.6276C93.4579 12.6289 92.2754 11.9331 90.8838 11.9331C89.0992 11.9331 86.6152 13.5086 86.7053 16.5947Z" fill="#808080"/>
<path d="M13.3548 14.7598V11.3673H24.7869C24.8987 11.9585 24.9564 12.6579 24.9564 13.415C24.9564 15.9603 24.2606 19.1077 22.0181 21.3501C19.8369 23.6214 17.0501 24.8328 13.3584 24.8328C6.51565 24.8328 0.761719 19.2591 0.761719 12.4164C0.761719 5.57367 6.51565 0 13.3584 0C17.1438 0 19.8406 1.48535 21.8667 3.42135L19.4728 5.81522C18.0199 4.45245 16.0515 3.39251 13.3548 3.39251C8.35792 3.39251 4.44986 7.41954 4.44986 12.4164C4.44986 17.4132 8.35792 21.4403 13.3548 21.4403C16.5959 21.4403 18.4417 20.1388 19.6242 18.9563C20.5832 17.9973 21.2141 16.6273 21.4629 14.7562L13.3548 14.7598Z" fill="#808080"/>
</svg>
