<svg width="24" height="24" viewBox="0 0 24 24" fill="none" xmlns="http://www.w3.org/2000/svg">
<rect width="24" height="24" fill="#DCD9D9"/>
<g id="1366w - Log in 5">
<rect width="1366" height="865" transform="translate(-224 -635)" fill="white"/>
<g id="Group 8076">
<g id="Group 8075">
<g id="Group 8074">
<g id="Group 3970">
<g id="Group 3969">
<g id="Rectangle 1077" filter="url(#filter0_d_176_273)">
<rect x="-144" y="-16" width="491" height="56" rx="8" fill="white"/>
<rect x="-143.5" y="-15.5" width="490" height="55" rx="7.5" stroke="#194F59"/>
</g>
<g id="Group 8078">
<g id="Group 8077">
<g id="google-svgrepo-com">
<g id="brand">
<g id="google">
<path id="Shape" d="M11.99 13.9V10.18H21.35C21.49 10.81 21.6 11.4 21.6 12.23C21.6 17.94 17.77 22 12 22C6.48 22 2 17.52 2 12C2 6.48 6.48 2 12 2C14.7 2 16.96 2.99 18.69 4.61L15.85 7.37C15.13 6.69 13.87 5.89 12 5.89C8.69 5.89 5.99 8.64 5.99 12.01C5.99 15.38 8.69 18.13 12 18.13C15.83 18.13 17.24 15.48 17.5 13.91H11.99V13.9Z" fill="#194F59"/>
</g>
</g>
</g>
</g>
</g>
</g>
</g>
</g>
</g>
</g>
</g>
<defs>
<filter id="filter0_d_176_273" x="-167" y="-32" width="539" height="104" filterUnits="userSpaceOnUse" color-interpolation-filters="sRGB">
<feFlood flood-opacity="0" result="BackgroundImageFix"/>
<feColorMatrix in="SourceAlpha" type="matrix" values="0 0 0 0 0 0 0 0 0 0 0 0 0 0 0 0 0 0 127 0" result="hardAlpha"/>
<feOffset dx="1" dy="8"/>
<feGaussianBlur stdDeviation="12"/>
<feComposite in2="hardAlpha" operator="out"/>
<feColorMatrix type="matrix" values="0 0 0 0 0.0980392 0 0 0 0 0.309804 0 0 0 0 0.34902 0 0 0 0.08 0"/>
<feBlend mode="normal" in2="BackgroundImageFix" result="effect1_dropShadow_176_273"/>
<feBlend mode="normal" in="SourceGraphic" in2="effect1_dropShadow_176_273" result="shape"/>
</filter>
</defs>
</svg>
