<svg width="60" height="32" viewBox="0 0 60 32" fill="none" xmlns="http://www.w3.org/2000/svg">
<path d="M23.7065 0C21.3121 0 19.2698 0.49297 17.2979 1.4789C12.157 4.01415 9.19922 9.43677 9.19922 16.1974C9.19922 22.9581 12.0866 28.2399 17.2275 30.6343C18.636 31.2681 20.0445 31.6202 22.1572 31.9019C23.2135 31.9723 24.1995 32.0428 25.2558 31.9019C27.3685 31.6202 28.777 31.2681 30.1855 30.6343C35.3264 28.1695 38.2138 22.9581 38.2138 16.1974C38.2138 9.43677 35.256 4.01415 30.115 1.4789C28.0728 0.49297 26.0305 0 23.7065 0ZM25.7488 4.78881C28.8474 5.63389 31.0306 8.38041 31.9461 12.465C32.5799 15.2819 32.3686 18.5918 31.5235 21.1975C30.1855 25.2117 27.2981 27.5356 23.7065 27.4652C20.1853 27.5356 17.2275 25.2117 15.8895 21.1975C15.0444 18.5918 14.8331 15.3524 15.4669 12.465C16.312 8.38041 18.5656 5.63389 21.6642 4.78881C23.0023 4.50711 24.4107 4.50711 25.7488 4.78881Z" fill="#808080"/>
<path d="M3.21192 0C1.52175 0 0.113281 1.40847 0.113281 3.09864C0.113281 4.7888 1.52175 6.19728 3.21192 6.19728C4.90208 6.19728 6.31058 4.7888 6.31058 3.09864C6.31058 1.40847 4.90208 0 3.21192 0ZM0.324565 9.36635V31.9723H6.09929V9.36635H0.324565Z" fill="#808080"/>
<path d="M46.5225 31.9722C44.0577 31.5497 41.6633 31.1976 39.6914 30.0708C39.6914 30.0708 40.8886 25.4933 40.959 25.4229C44.1985 26.5496 48.776 28.0285 51.8043 26.6201C53.4944 25.775 54.2691 24.2256 54.0578 22.4651C53.7761 20.4228 52.3677 19.296 48.5648 17.8875C44.3394 16.2678 41.8041 14.3663 40.8182 11.8311C40.3252 10.5635 40.1844 9.01414 40.3956 7.60567C41.0295 3.73237 44.0577 1.05627 48.6352 0.211188C49.9732 -8.33608e-05 52.8606 -8.33608e-05 54.2691 0.211188C56.3114 0.563306 58.6354 1.33797 58.6354 1.61966C58.6354 1.76051 57.4382 5.91551 57.3677 6.05635C55.3255 5.28169 53.1423 4.7183 51.1705 4.64788C48.4944 4.57746 45.5366 6.1972 46.0295 9.01414C46.3817 10.7747 47.5084 11.6198 51.6634 13.31C54.7621 14.5776 56.1705 15.4227 57.4382 16.6903C59.1987 18.4509 59.7621 20.4932 59.7621 22.5355C59.7621 24.2256 59.6213 25.0003 58.9875 26.3384C57.5086 29.5074 54.5508 31.3384 50.0437 31.8314C49.1986 31.9722 47.2267 32.0427 46.5225 31.9722Z" fill="#808080"/>
</svg>
