<svg width="31" height="32" viewBox="0 0 31 32" fill="none" xmlns="http://www.w3.org/2000/svg">
<path d="M26.3348 12.8401C26.154 10.892 25.4894 9.02553 24.4055 7.42251C23.3217 5.81949 21.8555 4.53453 20.1499 3.69274C18.4443 2.85096 16.5573 2.48105 14.6727 2.61902C12.788 2.757 10.97 3.39817 9.39562 4.48009C8.04306 5.41695 6.9076 6.65248 6.07079 8.09794C5.23399 9.5434 4.71663 11.1629 4.55587 12.8401C4.39817 14.5063 4.6005 16.188 5.14819 17.7631C5.69587 19.3383 6.57518 20.7674 7.7223 21.9468L14.5443 29.0268C14.664 29.1517 14.8063 29.2509 14.9632 29.3186C15.12 29.3863 15.2883 29.4212 15.4582 29.4212C15.6281 29.4212 15.7964 29.3863 15.9532 29.3186C16.1101 29.2509 16.2524 29.1517 16.3721 29.0268L23.1683 21.9468C24.3155 20.7674 25.1948 19.3383 25.7425 17.7631C26.2901 16.188 26.4925 14.5063 26.3348 12.8401ZM21.3663 20.0668L15.4453 26.2001L9.52434 20.0668C8.65176 19.1628 7.98335 18.0699 7.56716 16.8664C7.15097 15.663 6.99735 14.379 7.11734 13.1068C7.2381 11.8149 7.63447 10.567 8.27781 9.45321C8.92114 8.33945 9.79536 7.3877 10.8373 6.66675C12.2029 5.72707 13.8059 5.22581 15.4453 5.22581C17.0848 5.22581 18.6878 5.72707 20.0534 6.66675C21.0921 7.38491 21.9644 8.33246 22.6076 9.44134C23.2508 10.5502 23.6489 11.7929 23.7733 13.0801C23.8972 14.3567 23.7455 15.6458 23.3292 16.8542C22.9129 18.0625 22.2424 19.1599 21.3663 20.0668ZM15.4453 8.00009C14.2997 8.00009 13.1798 8.35198 12.2273 9.01127C11.2748 9.67056 10.5324 10.6076 10.094 11.704C9.65557 12.8003 9.54086 14.0067 9.76436 15.1706C9.98785 16.3345 10.5395 17.4036 11.3496 18.2427C12.1596 19.0818 13.1917 19.6533 14.3153 19.8848C15.4389 20.1163 16.6035 19.9975 17.6619 19.5434C18.7203 19.0892 19.6249 18.3202 20.2614 17.3335C20.8979 16.3468 21.2376 15.1868 21.2376 14.0001C21.2342 12.4099 20.6228 10.8858 19.5373 9.76134C18.4518 8.63688 16.9805 8.00361 15.4453 8.00009ZM15.4453 17.3334C14.8089 17.3334 14.1867 17.1379 13.6575 16.7717C13.1284 16.4054 12.7159 15.8848 12.4723 15.2757C12.2288 14.6666 12.1651 13.9964 12.2892 13.3498C12.4134 12.7032 12.7199 12.1092 13.1699 11.6431C13.6199 11.1769 14.1933 10.8594 14.8175 10.7308C15.4417 10.6022 16.0888 10.6682 16.6768 10.9205C17.2648 11.1728 17.7673 11.6 18.1209 12.1482C18.4745 12.6964 18.6632 13.3408 18.6632 14.0001C18.6632 14.8841 18.3242 15.732 17.7207 16.3571C17.1173 16.9822 16.2988 17.3334 15.4453 17.3334Z" fill="#194F59"/>
</svg>
