<svg width="32" height="32" viewBox="0 0 32 32" fill="none" xmlns="http://www.w3.org/2000/svg">
<path d="M25.3327 5.3335H6.66602C5.60515 5.3335 4.58773 5.75492 3.83759 6.50507C3.08744 7.25521 2.66602 8.27263 2.66602 9.3335V22.6668C2.66602 23.7277 3.08744 24.7451 3.83759 25.4953C4.58773 26.2454 5.60515 26.6668 6.66602 26.6668H25.3327C26.3935 26.6668 27.411 26.2454 28.1611 25.4953C28.9113 24.7451 29.3327 23.7277 29.3327 22.6668V9.3335C29.3327 8.27263 28.9113 7.25521 28.1611 6.50507C27.411 5.75492 26.3935 5.3335 25.3327 5.3335ZM6.66602 8.00016H25.3327C25.6863 8.00016 26.0254 8.14064 26.2755 8.39069C26.5255 8.64074 26.666 8.97987 26.666 9.3335L15.9993 15.8402L5.33268 9.3335C5.33268 8.97987 5.47316 8.64074 5.72321 8.39069C5.97326 8.14064 6.31239 8.00016 6.66602 8.00016ZM26.666 22.6668C26.666 23.0205 26.5255 23.3596 26.2755 23.6096C26.0254 23.8597 25.6863 24.0002 25.3327 24.0002H6.66602C6.31239 24.0002 5.97326 23.8597 5.72321 23.6096C5.47316 23.3596 5.33268 23.0205 5.33268 22.6668V12.3735L15.306 18.4668C15.5087 18.5839 15.7386 18.6455 15.9727 18.6455C16.2067 18.6455 16.4367 18.5839 16.6393 18.4668L26.666 12.3735V22.6668Z" fill="#194F59"/>
</svg>
