<svg width="56" height="56" viewBox="0 0 56 56" fill="none" xmlns="http://www.w3.org/2000/svg">
<path d="M32.3799 36.4869L31.3947 35.5338C29.3711 33.5762 29.3711 30.4021 31.3947 28.4445L32.3799 27.4916C34.4035 25.5338 37.6844 25.5338 39.708 27.4916L40.6933 28.4445C42.7169 30.4021 42.7169 33.5762 40.6933 35.5338L39.708 36.4869C37.6844 38.4445 34.4035 38.4445 32.3799 36.4869Z" fill="#194F59"/>
<path d="M45.6303 17.4409C45.6303 21.0308 42.6183 23.941 38.903 23.941H30.5536C26.8381 23.941 23.826 26.8513 23.826 30.4414V38.5602C23.826 42.1503 20.8142 45.0605 17.0989 45.0605H17.0984C13.3831 45.0605 10.3711 42.1503 10.3711 38.5602V17.4409C10.3711 13.8508 13.3831 10.9408 17.0984 10.9408H38.903C42.6183 10.9408 45.6303 13.8508 45.6303 17.4409Z" fill="#194F59"/>
</svg>
