<svg width="32" height="32" viewBox="0 0 32 32" fill="none" xmlns="http://www.w3.org/2000/svg">
<g clip-path="url(#clip0_520_6539)">
<path d="M31.1748 8.28082L24.894 0.315068C24.7365 0.116438 24.5036 0 24.2502 0H7.75704C7.50361 0 7.27074 0.116438 7.1132 0.315068L0.832379 8.28082C0.715941 8.42466 0.654297 8.60274 0.654297 8.78767V31.1781C0.654297 31.6301 1.02416 32 1.47621 32H30.5242C30.9762 32 31.3461 31.6301 31.3461 31.1781V8.78767C31.3529 8.60274 31.2913 8.42466 31.1748 8.28082ZM28.942 8.10274H16.8255V1.64384H23.8529L28.942 8.10274ZM8.1543 1.64384H15.1817V8.10274H3.06526L8.1543 1.64384ZM2.29813 30.3562V9.74658H29.7022V30.3562H2.29813Z" fill="#CAC9CA"/>
<path d="M19.9005 16.3629L14.3937 21.8698L12.106 19.5821C11.7841 19.2602 11.2636 19.2602 10.9416 19.5821C10.6197 19.904 10.6197 20.4245 10.9416 20.7465L13.8115 23.6163C13.969 23.7739 14.1814 23.8561 14.3937 23.8561C14.606 23.8561 14.8115 23.7739 14.9759 23.6163L21.0581 17.5341C21.38 17.2122 21.38 16.6917 21.0581 16.3698C20.743 16.041 20.2225 16.041 19.9005 16.3629Z" fill="#CAC9CA"/>
</g>
<defs>
<clipPath id="clip0_520_6539">
<rect width="32" height="32" fill="white"/>
</clipPath>
</defs>
</svg>
