<svg width="24" height="24" viewBox="0 0 24 24" fill="none" xmlns="http://www.w3.org/2000/svg">
<g clip-path="url(#clip0_520_7527)">
<path d="M23.3808 6.21062L18.6702 0.236301C18.552 0.0873288 18.3773 0 18.1873 0H5.81741C5.62734 0 5.45269 0.0873288 5.33453 0.236301L0.623918 6.21062C0.536589 6.31849 0.490356 6.45205 0.490356 6.59075V23.3836C0.490356 23.7226 0.767754 24 1.10679 24H22.8928C23.2318 24 23.5092 23.7226 23.5092 23.3836V6.59075C23.5143 6.45205 23.4681 6.31849 23.3808 6.21062ZM21.7061 6.07705H12.6188V1.23288H17.8893L21.7061 6.07705ZM6.11536 1.23288H11.3859V6.07705H2.29858L6.11536 1.23288ZM1.72323 22.7671V7.30993H22.2763V22.7671H1.72323Z" fill="#808080"/>
<path d="M14.9253 12.2722L10.7951 16.4024L9.07939 14.6866C8.83795 14.4452 8.44754 14.4452 8.2061 14.6866C7.96466 14.9281 7.96466 15.3185 8.2061 15.5599L10.3585 17.7123C10.4766 17.8305 10.6359 17.8921 10.7951 17.8921C10.9544 17.8921 11.1085 17.8305 11.2318 17.7123L15.7934 13.1507C16.0349 12.9092 16.0349 12.5188 15.7934 12.2774C15.5571 12.0308 15.1667 12.0308 14.9253 12.2722Z" fill="#808080"/>
</g>
<defs>
<clipPath id="clip0_520_7527">
<rect width="24" height="24" fill="white"/>
</clipPath>
</defs>
</svg>
