<svg width="197" height="48" viewBox="0 0 197 48" fill="none" xmlns="http://www.w3.org/2000/svg">
<path d="M65.504 18V6.64H68.768C70.5067 6.64 71.9467 7.17867 73.088 8.256C74.24 9.33333 74.816 10.688 74.816 12.32C74.816 13.952 74.24 15.3067 73.088 16.384C71.9467 17.4613 70.5067 18 68.768 18H65.504ZM66.992 16.608H68.768C70.1227 16.608 71.216 16.208 72.048 15.408C72.8907 14.5973 73.312 13.568 73.312 12.32C73.312 11.072 72.8907 10.048 72.048 9.248C71.216 8.43733 70.1227 8.032 68.768 8.032H66.992V16.608ZM80.3793 18.16C79.1739 18.16 78.1713 17.76 77.3713 16.96C76.5819 16.1493 76.1873 15.1627 76.1873 14C76.1873 12.8373 76.5819 11.856 77.3713 11.056C78.1713 10.2453 79.1739 9.84 80.3793 9.84C81.5739 9.84 82.5659 10.2453 83.3553 11.056C84.1553 11.856 84.5553 12.8373 84.5553 14C84.5553 15.1627 84.1553 16.1493 83.3553 16.96C82.5659 17.76 81.5739 18.16 80.3793 18.16ZM78.3633 16.048C78.8859 16.6027 79.5579 16.88 80.3793 16.88C81.2006 16.88 81.8673 16.6027 82.3793 16.048C82.8913 15.4933 83.1473 14.8107 83.1473 14C83.1473 13.1893 82.8913 12.5067 82.3793 11.952C81.8673 11.3973 81.2006 11.12 80.3793 11.12C79.5579 11.12 78.8859 11.3973 78.3633 11.952C77.8513 12.5067 77.5953 13.1893 77.5953 14C77.5953 14.8107 77.8513 15.4933 78.3633 16.048ZM93.2831 18L91.2991 12.256L89.3311 18H88.1151L85.3951 10H86.8351L88.7711 15.84L90.7711 10H91.8271L93.8271 15.84L95.7631 10H97.2191L94.4991 18H93.2831ZM98.7023 18V10H100.078V11.232C100.622 10.304 101.47 9.84 102.622 9.84C103.529 9.84 104.26 10.1333 104.814 10.72C105.369 11.3067 105.646 12.0907 105.646 13.072V18H104.286V13.28C104.286 12.608 104.116 12.08 103.774 11.696C103.433 11.3013 102.974 11.104 102.398 11.104C101.737 11.104 101.182 11.3653 100.734 11.888C100.297 12.4107 100.078 13.1253 100.078 14.032V18H98.7023ZM108.124 18V6H109.5V18H108.124ZM115.661 18.16C114.455 18.16 113.453 17.76 112.653 16.96C111.863 16.1493 111.469 15.1627 111.469 14C111.469 12.8373 111.863 11.856 112.653 11.056C113.453 10.2453 114.455 9.84 115.661 9.84C116.855 9.84 117.847 10.2453 118.637 11.056C119.437 11.856 119.837 12.8373 119.837 14C119.837 15.1627 119.437 16.1493 118.637 16.96C117.847 17.76 116.855 18.16 115.661 18.16ZM113.645 16.048C114.167 16.6027 114.839 16.88 115.661 16.88C116.482 16.88 117.149 16.6027 117.661 16.048C118.173 15.4933 118.429 14.8107 118.429 14C118.429 13.1893 118.173 12.5067 117.661 11.952C117.149 11.3973 116.482 11.12 115.661 11.12C114.839 11.12 114.167 11.3973 113.645 11.952C113.133 12.5067 112.877 13.1893 112.877 14C112.877 14.8107 113.133 15.4933 113.645 16.048ZM125.108 18.16C123.998 18.16 123.065 17.7547 122.308 16.944C121.561 16.1333 121.188 15.152 121.188 14C121.188 12.848 121.561 11.8667 122.308 11.056C123.065 10.2453 123.998 9.84 125.108 9.84C125.694 9.84 126.238 9.97333 126.74 10.24C127.252 10.496 127.646 10.8267 127.924 11.232V10H129.3V18H127.924V16.768C127.646 17.1733 127.252 17.5093 126.74 17.776C126.238 18.032 125.694 18.16 125.108 18.16ZM125.316 16.896C126.105 16.896 126.756 16.6187 127.268 16.064C127.78 15.5093 128.036 14.8213 128.036 14C128.036 13.1787 127.78 12.4907 127.268 11.936C126.756 11.3813 126.105 11.104 125.316 11.104C124.516 11.104 123.86 11.3813 123.348 11.936C122.836 12.4907 122.58 13.1787 122.58 14C122.58 14.8213 122.836 15.5093 123.348 16.064C123.86 16.6187 124.516 16.896 125.316 16.896ZM135.186 18.16C134.076 18.16 133.143 17.7547 132.386 16.944C131.639 16.1333 131.266 15.152 131.266 14C131.266 12.848 131.639 11.8667 132.386 11.056C133.143 10.2453 134.076 9.84 135.186 9.84C135.772 9.84 136.316 9.97333 136.818 10.24C137.33 10.496 137.724 10.8267 138.002 11.232V6H139.378V18H138.002V16.768C137.724 17.1733 137.33 17.5093 136.818 17.776C136.316 18.032 135.772 18.16 135.186 18.16ZM135.394 16.896C136.183 16.896 136.834 16.6187 137.346 16.064C137.858 15.5093 138.114 14.8213 138.114 14C138.114 13.1787 137.858 12.4907 137.346 11.936C136.834 11.3813 136.183 11.104 135.394 11.104C134.594 11.104 133.938 11.3813 133.426 11.936C132.914 12.4907 132.658 13.1787 132.658 14C132.658 14.8213 132.914 15.5093 133.426 16.064C133.938 16.6187 134.594 16.896 135.394 16.896ZM149.379 18.16C148.174 18.16 147.171 17.76 146.371 16.96C145.582 16.1493 145.187 15.1627 145.187 14C145.187 12.8373 145.582 11.856 146.371 11.056C147.171 10.2453 148.174 9.84 149.379 9.84C150.574 9.84 151.566 10.2453 152.355 11.056C153.155 11.856 153.555 12.8373 153.555 14C153.555 15.1627 153.155 16.1493 152.355 16.96C151.566 17.76 150.574 18.16 149.379 18.16ZM147.363 16.048C147.886 16.6027 148.558 16.88 149.379 16.88C150.201 16.88 150.867 16.6027 151.379 16.048C151.891 15.4933 152.147 14.8107 152.147 14C152.147 13.1893 151.891 12.5067 151.379 11.952C150.867 11.3973 150.201 11.12 149.379 11.12C148.558 11.12 147.886 11.3973 147.363 11.952C146.851 12.5067 146.595 13.1893 146.595 14C146.595 14.8107 146.851 15.4933 147.363 16.048ZM155.53 18V10H156.906V11.232C157.45 10.304 158.298 9.84 159.45 9.84C160.357 9.84 161.088 10.1333 161.642 10.72C162.197 11.3067 162.474 12.0907 162.474 13.072V18H161.114V13.28C161.114 12.608 160.944 12.08 160.602 11.696C160.261 11.3013 159.802 11.104 159.226 11.104C158.565 11.104 158.01 11.3653 157.562 11.888C157.125 12.4107 156.906 13.1253 156.906 14.032V18H155.53ZM171.65 18.08C170.914 18.08 170.322 17.872 169.874 17.456C169.426 17.04 169.202 16.432 169.202 15.632V11.264H167.506V10H169.202V7.776H170.578V10H172.882V11.264H170.578V15.456C170.578 15.9573 170.685 16.3093 170.898 16.512C171.111 16.7147 171.447 16.816 171.906 16.816C172.311 16.816 172.637 16.7627 172.882 16.656V17.888C172.498 18.016 172.087 18.08 171.65 18.08ZM176.016 18H174.64V6H176.016V11.232C176.56 10.304 177.408 9.84 178.56 9.84C179.466 9.84 180.197 10.1333 180.752 10.72C181.306 11.3067 181.584 12.0907 181.584 13.072V18H180.224V13.28C180.224 12.608 180.053 12.08 179.712 11.696C179.37 11.3013 178.912 11.104 178.336 11.104C177.674 11.104 177.12 11.3653 176.672 11.888C176.234 12.4107 176.016 13.1253 176.016 14.032V18ZM187.582 18.16C186.355 18.16 185.358 17.7653 184.59 16.976C183.822 16.1867 183.438 15.1947 183.438 14C183.438 12.816 183.827 11.8293 184.606 11.04C185.384 10.24 186.382 9.84 187.598 9.84C188.675 9.84 189.576 10.2027 190.302 10.928C191.038 11.6427 191.406 12.6187 191.406 13.856C191.406 14.016 191.4 14.1547 191.39 14.272H184.83C184.851 15.0187 185.118 15.6427 185.63 16.144C186.152 16.6453 186.808 16.896 187.598 16.896C188.718 16.896 189.55 16.432 190.094 15.504L191.182 16.256C190.403 17.5253 189.203 18.16 187.582 18.16ZM184.926 13.152H189.998C189.891 12.512 189.608 12.0053 189.15 11.632C188.702 11.248 188.168 11.056 187.55 11.056C186.92 11.056 186.355 11.248 185.854 11.632C185.363 12.0053 185.054 12.512 184.926 13.152Z" fill="#231F20" fill-opacity="0.72"/>
<path d="M72.874 31.462C73.726 32.278 74.152 33.298 74.152 34.522C74.152 35.746 73.726 36.772 72.874 37.6C72.022 38.416 70.954 38.824 69.67 38.824H68.032V43H65.422V30.22H69.67C70.954 30.22 72.022 30.634 72.874 31.462ZM71.074 35.854C71.434 35.506 71.614 35.062 71.614 34.522C71.614 33.982 71.434 33.538 71.074 33.19C70.714 32.842 70.234 32.668 69.634 32.668H68.032V36.376H69.634C70.234 36.376 70.714 36.202 71.074 35.854ZM75.6997 43V29.5H78.1657V43H75.6997ZM84.1877 43.198C82.9997 43.198 81.9977 42.736 81.1817 41.812C80.3657 40.888 79.9577 39.784 79.9577 38.5C79.9577 37.216 80.3657 36.112 81.1817 35.188C81.9977 34.264 82.9997 33.802 84.1877 33.802C84.7637 33.802 85.2797 33.922 85.7357 34.162C86.1917 34.402 86.5397 34.684 86.7797 35.008V34H89.2457V43H86.7797V41.992C86.5397 42.316 86.1917 42.598 85.7357 42.838C85.2797 43.078 84.7637 43.198 84.1877 43.198ZM83.0537 40.264C83.4737 40.72 84.0257 40.948 84.7097 40.948C85.3937 40.948 85.9397 40.72 86.3477 40.264C86.7677 39.808 86.9777 39.22 86.9777 38.5C86.9777 37.78 86.7677 37.192 86.3477 36.736C85.9397 36.28 85.3937 36.052 84.7097 36.052C84.0257 36.052 83.4737 36.28 83.0537 36.736C82.6457 37.192 82.4417 37.78 82.4417 38.5C82.4417 39.22 82.6457 39.808 83.0537 40.264ZM95.0631 46.762H92.3811L94.2711 42.496L90.4911 34H93.1911L95.6031 39.832L97.9971 34H100.715L95.0631 46.762ZM104.739 43.198C103.035 43.198 101.799 42.622 101.031 41.47L102.723 40.03C103.155 40.726 103.827 41.074 104.739 41.074C105.015 41.074 105.249 41.02 105.441 40.912C105.633 40.804 105.729 40.642 105.729 40.426C105.729 40.234 105.645 40.078 105.477 39.958C105.321 39.826 105.003 39.694 104.523 39.562L103.857 39.4C103.029 39.184 102.399 38.824 101.967 38.32C101.547 37.816 101.349 37.216 101.373 36.52C101.397 35.704 101.721 35.05 102.345 34.558C102.981 34.054 103.785 33.802 104.757 33.802C106.137 33.802 107.175 34.306 107.871 35.314L106.251 36.628C105.831 36.1 105.321 35.836 104.721 35.836C104.481 35.836 104.271 35.89 104.091 35.998C103.911 36.106 103.821 36.256 103.821 36.448C103.821 36.808 104.115 37.066 104.703 37.222L105.549 37.474C107.289 37.942 108.159 38.872 108.159 40.264C108.159 41.116 107.835 41.818 107.187 42.37C106.539 42.922 105.723 43.198 104.739 43.198ZM114.157 43.108C113.149 43.108 112.321 42.832 111.673 42.28C111.037 41.716 110.719 40.906 110.719 39.85V36.16H108.901V34H110.719V31.498H113.185V34H115.723V36.16H113.185V39.364C113.185 39.916 113.305 40.312 113.545 40.552C113.785 40.78 114.175 40.894 114.715 40.894C115.099 40.894 115.435 40.84 115.723 40.732V42.91C115.291 43.042 114.769 43.108 114.157 43.108ZM124.848 41.848C123.924 42.748 122.808 43.198 121.5 43.198C120.192 43.198 119.076 42.748 118.152 41.848C117.228 40.936 116.766 39.82 116.766 38.5C116.766 37.192 117.228 36.082 118.152 35.17C119.076 34.258 120.192 33.802 121.5 33.802C122.808 33.802 123.924 34.258 124.848 35.17C125.772 36.082 126.234 37.192 126.234 38.5C126.234 39.82 125.772 40.936 124.848 41.848ZM121.5 40.894C122.136 40.894 122.664 40.672 123.084 40.228C123.516 39.772 123.732 39.196 123.732 38.5C123.732 37.804 123.516 37.234 123.084 36.79C122.664 36.334 122.136 36.106 121.5 36.106C120.852 36.106 120.312 36.334 119.88 36.79C119.46 37.234 119.25 37.804 119.25 38.5C119.25 39.196 119.46 39.772 119.88 40.228C120.312 40.672 120.852 40.894 121.5 40.894ZM128.012 43V34H130.478V35.44C130.634 34.996 130.916 34.63 131.324 34.342C131.744 34.042 132.206 33.892 132.71 33.892C133.022 33.892 133.298 33.928 133.538 34V36.502C133.142 36.37 132.77 36.304 132.422 36.304C131.834 36.304 131.36 36.52 131 36.952C130.652 37.372 130.478 37.954 130.478 38.698V43H128.012ZM138.991 43.198C137.623 43.198 136.483 42.766 135.571 41.902C134.671 41.038 134.221 39.904 134.221 38.5C134.221 37.156 134.671 36.04 135.571 35.152C136.471 34.252 137.599 33.802 138.955 33.802C140.203 33.802 141.253 34.192 142.105 34.972C142.957 35.74 143.383 36.826 143.383 38.23C143.383 38.626 143.371 38.908 143.347 39.076H136.615C136.687 39.664 136.945 40.126 137.389 40.462C137.845 40.786 138.385 40.948 139.009 40.948C140.065 40.948 140.839 40.57 141.331 39.814L143.167 41.182C142.243 42.526 140.851 43.198 138.991 43.198ZM136.705 37.402H140.917C140.809 36.886 140.563 36.496 140.179 36.232C139.807 35.968 139.375 35.836 138.883 35.836C138.379 35.836 137.917 35.968 137.497 36.232C137.077 36.496 136.813 36.886 136.705 37.402Z" fill="#231F20"/>
<path d="M41.8384 21.3063C41.2095 20.9664 35.8169 17.8375 33.7934 16.6598L33.7876 16.6558L9.27782 2.5055C8.86026 2.2506 8.39205 2.09002 7.90594 2.03499C7.41983 1.97995 6.92757 2.0318 6.4636 2.1869C6.41124 2.2057 6.36204 2.22462 6.31114 2.24792C6.19296 2.28644 6.07743 2.33268 5.96532 2.38636C5.49669 2.66646 5.11223 3.06771 4.85238 3.54787C4.59254 4.02803 4.46693 4.56935 4.48876 5.11488V43.0856C4.47388 43.5938 4.59425 44.0969 4.83755 44.5433C5.08086 44.9898 5.43836 45.3636 5.87352 45.6266C5.97388 45.6756 6.07729 45.7182 6.1831 45.754C6.24096 45.7808 6.29612 45.804 6.35582 45.8251C6.64224 45.9289 6.94389 45.9846 7.24852 45.9899C7.8335 45.9836 8.4066 45.824 8.91064 45.527C9.68798 45.0758 33.7876 31.1617 33.7876 31.1617L41.8286 26.5192C42.3258 26.2701 42.7454 25.8899 43.0421 25.4197C43.3388 24.9495 43.5014 24.4071 43.5122 23.8512C43.4878 23.3157 43.3194 22.7967 43.0248 22.3488C42.7302 21.901 42.3204 21.5408 41.8384 21.3063V21.3063ZM8.48876 39.6783V8.20398L24.369 23.9221L8.48876 39.6783ZM18.5248 35.3549L27.2118 26.7358L29.5109 29.0114C26.9816 30.4719 22.7082 32.9395 18.5248 35.355V35.3549ZM27.2084 21.1049L18.4126 12.3989L29.5199 18.8115L27.2084 21.1049ZM33.1019 26.9383L30.0511 23.9187L33.1066 20.8871C34.5472 21.7236 36.7923 23.0258 38.3384 23.9157L33.1019 26.9383Z" fill="#231F20"/>
</svg>
