<svg width="491" height="491" viewBox="0 0 491 491" fill="none" xmlns="http://www.w3.org/2000/svg">
<path d="M245.5 265.958C240.074 265.958 234.87 268.114 231.033 271.951C227.197 275.787 225.041 280.991 225.041 286.417V347.792C225.041 353.218 227.197 358.421 231.033 362.258C234.87 366.095 240.074 368.25 245.5 368.25C250.926 368.25 256.129 366.095 259.966 362.258C263.803 358.421 265.958 353.218 265.958 347.792V286.417C265.958 280.991 263.803 275.787 259.966 271.951C256.129 268.114 250.926 265.958 245.5 265.958ZM347.791 184.125V143.208C347.791 116.079 337.014 90.0607 317.831 70.8773C298.647 51.6939 272.629 40.9167 245.5 40.9167C218.37 40.9167 192.352 51.6939 173.169 70.8773C153.985 90.0607 143.208 116.079 143.208 143.208V184.125C126.93 184.125 111.319 190.591 99.8093 202.101C88.2993 213.611 81.833 229.222 81.833 245.5V388.708C81.833 404.986 88.2993 420.597 99.8093 432.107C111.319 443.617 126.93 450.083 143.208 450.083H347.791C364.069 450.083 379.68 443.617 391.19 432.107C402.7 420.597 409.166 404.986 409.166 388.708V245.5C409.166 229.222 402.7 213.611 391.19 202.101C379.68 190.591 364.069 184.125 347.791 184.125ZM184.125 143.208C184.125 126.931 190.591 111.32 202.101 99.8097C213.611 88.2997 229.222 81.8334 245.5 81.8334C261.777 81.8334 277.388 88.2997 288.898 99.8097C300.408 111.32 306.875 126.931 306.875 143.208V184.125H184.125V143.208ZM368.25 388.708C368.25 394.134 366.094 399.338 362.258 403.175C358.421 407.011 353.217 409.167 347.791 409.167H143.208C137.782 409.167 132.578 407.011 128.742 403.175C124.905 399.338 122.75 394.134 122.75 388.708V245.5C122.75 240.074 124.905 234.871 128.742 231.034C132.578 227.197 137.782 225.042 143.208 225.042H347.791C353.217 225.042 358.421 227.197 362.258 231.034C366.094 234.871 368.25 240.074 368.25 245.5V388.708Z" fill="white"/>
</svg>
