<svg width="160" height="160" viewBox="0 0 160 160" fill="none" xmlns="http://www.w3.org/2000/svg">
<path d="M80.0003 86.6666C78.2322 86.6666 76.5365 87.369 75.2863 88.6192C74.036 89.8695 73.3337 91.5652 73.3337 93.3333V113.333C73.3337 115.101 74.036 116.797 75.2863 118.047C76.5365 119.298 78.2322 120 80.0003 120C81.7684 120 83.4641 119.298 84.7144 118.047C85.9646 116.797 86.667 115.101 86.667 113.333V93.3333C86.667 91.5652 85.9646 89.8695 84.7144 88.6192C83.4641 87.369 81.7684 86.6666 80.0003 86.6666ZM113.334 59.9999V46.6666C113.334 37.826 109.822 29.3476 103.571 23.0964C97.3193 16.8451 88.8409 13.3333 80.0003 13.3333C71.1598 13.3333 62.6813 16.8451 56.4301 23.0964C50.1789 29.3476 46.667 37.826 46.667 46.6666V59.9999C41.3627 59.9999 36.2756 62.1071 32.5249 65.8578C28.7741 69.6085 26.667 74.6956 26.667 79.9999V126.667C26.667 131.971 28.7741 137.058 32.5249 140.809C36.2756 144.559 41.3627 146.667 46.667 146.667H113.334C118.638 146.667 123.725 144.559 127.476 140.809C131.227 137.058 133.334 131.971 133.334 126.667V79.9999C133.334 74.6956 131.227 69.6085 127.476 65.8578C123.725 62.1071 118.638 59.9999 113.334 59.9999ZM60.0003 46.6666C60.0003 41.3623 62.1075 36.2752 65.8582 32.5245C69.6089 28.7737 74.696 26.6666 80.0003 26.6666C85.3047 26.6666 90.3917 28.7737 94.1425 32.5245C97.8932 36.2752 100 41.3623 100 46.6666V59.9999H60.0003V46.6666ZM120 126.667C120 128.435 119.298 130.13 118.048 131.381C116.797 132.631 115.102 133.333 113.334 133.333H46.667C44.8989 133.333 43.2032 132.631 41.9529 131.381C40.7027 130.13 40.0003 128.435 40.0003 126.667V79.9999C40.0003 78.2318 40.7027 76.5361 41.9529 75.2859C43.2032 74.0356 44.8989 73.3333 46.667 73.3333H113.334C115.102 73.3333 116.797 74.0356 118.048 75.2859C119.298 76.5361 120 78.2318 120 79.9999V126.667Z" fill="white"/>
</svg>
