<svg width="160" height="160" viewBox="0 0 160 160" fill="none" xmlns="http://www.w3.org/2000/svg">
<g clip-path="url(#clip0_594_1494)">
<path d="M153.856 88.4434L91.7618 26.3145C88.4828 23.0354 84.0992 21.2061 79.4741 21.2061C79.0944 21.2061 78.7147 21.2061 78.3351 21.2406L33.4296 24.209C28.5629 24.5196 24.628 28.4545 24.3174 33.3212L23.2474 49.2677C20.9693 47.956 18.7948 46.2993 16.8274 44.3319C12.0297 39.5341 9.06129 33.5628 8.44 27.488C7.85323 21.7238 9.51 16.5809 13.0997 12.9913C20.7277 5.3632 34.7758 7.05449 44.4748 16.719C46.097 18.3412 48.7203 18.3412 50.3425 16.719C51.9648 15.0967 51.9648 12.4735 50.3425 10.8513C37.3645 -2.02324 18.0355 -3.68001 7.19742 7.15804C1.81291 12.5425 -0.672245 20.0325 0.156141 28.3509C0.950011 36.3241 4.7813 44.0902 10.9252 50.2341C14.3768 53.6857 18.3806 56.4125 22.6261 58.2763L21.3145 78.2612C20.9693 83.266 22.8332 88.1673 26.3884 91.7224L88.5173 153.851C92.4521 157.786 97.6641 159.926 103.221 159.926C108.778 159.926 113.99 157.752 117.925 153.851L153.925 117.851C157.86 113.916 160 108.704 160 103.147C159.966 97.5556 157.791 92.3437 153.856 88.4434ZM148.023 111.949L111.988 147.984C109.641 150.331 106.5 151.642 103.152 151.642C99.8041 151.642 96.6631 150.331 94.316 147.984L32.1871 85.8547C30.3232 83.9908 29.3567 81.4366 29.5293 78.8134L30.7374 60.727C31.4277 60.8305 32.118 60.9341 32.8084 61.0031C33.8438 61.1067 34.8793 61.1757 35.8803 61.1757C42.9561 61.1757 49.2725 58.6905 53.9667 53.9964C55.589 52.3741 55.589 49.7509 53.9667 48.1286C52.3445 46.5064 49.7212 46.5064 48.099 48.1286C44.5093 51.7183 39.3664 53.3751 33.6022 52.7883C32.8084 52.7193 32.049 52.5812 31.2896 52.4431L32.5322 33.9425C32.5667 33.1832 33.188 32.5964 33.9474 32.5274L78.8528 29.559C79.0599 29.559 79.267 29.5245 79.4741 29.5245C81.8902 29.5245 84.2373 30.4909 85.9286 32.1822L148.023 94.2766C150.37 96.6237 151.682 99.7647 151.682 103.113C151.682 106.461 150.37 109.602 148.023 111.949Z" fill="#CAC9CA"/>
</g>
<defs>
<clipPath id="clip0_594_1494">
<rect width="160" height="160" fill="white"/>
</clipPath>
</defs>
</svg>
