<svg width="160" height="160" viewBox="0 0 160 160" fill="none" xmlns="http://www.w3.org/2000/svg">
<path d="M155.872 41.4041L124.468 1.57534C123.681 0.582192 122.516 0 121.249 0H38.7832C37.5161 0 36.3517 0.582192 35.5641 1.57534L4.15994 41.4041C3.57775 42.1233 3.26953 43.0137 3.26953 43.9384V155.89C3.26953 158.151 5.11885 160 7.37912 160H152.619C154.879 160 156.728 158.151 156.728 155.89V43.9384C156.763 43.0137 156.454 42.1233 155.872 41.4041ZM144.708 40.5137H84.1257V8.21918H119.263L144.708 40.5137ZM40.7695 8.21918H75.9065V40.5137H15.3243L40.7695 8.21918ZM11.4887 151.781V48.7329H148.509V151.781H11.4887Z" fill="#CAC9CA"/>
<path d="M99.5017 81.8152L71.9675 109.35L60.5291 97.9111C58.9195 96.3016 56.3168 96.3016 54.7072 97.9111C53.0976 99.5207 53.0976 102.123 54.7072 103.733L69.0565 118.082C69.8442 118.87 70.9058 119.281 71.9675 119.281C73.0291 119.281 74.0565 118.87 74.8784 118.082L105.289 87.6714C106.899 86.0618 106.899 83.4591 105.289 81.8495C103.714 80.2057 101.111 80.2057 99.5017 81.8152Z" fill="#CAC9CA"/>
</svg>
