<svg width="224" height="224" viewBox="0 0 224 224" fill="none" xmlns="http://www.w3.org/2000/svg">
<path d="M224 112C224 173.856 173.856 224 112 224C50.1441 224 0 173.856 0 112C0 50.1441 50.1441 0 112 0C173.856 0 224 50.1441 224 112ZM16.8 112C16.8 164.578 59.4225 207.2 112 207.2C164.578 207.2 207.2 164.578 207.2 112C207.2 59.4225 164.578 16.8 112 16.8C59.4225 16.8 16.8 59.4225 16.8 112Z" fill="#E6E6E7"/>
<path d="M112 8.39999C112 3.7608 108.234 -0.0327606 103.608 0.31485C91.7732 1.20412 80.1368 3.97023 69.1395 8.5255C55.551 14.154 43.2042 22.4039 32.804 32.804C22.4039 43.2042 14.154 55.551 8.52549 69.1395C2.89696 82.7279 -6.42909e-07 97.292 0 112C6.42909e-07 126.708 2.89697 141.272 8.52549 154.861C14.154 168.449 22.4039 180.796 32.804 191.196C43.2042 201.596 55.551 209.846 69.1395 215.475C80.1369 220.03 91.7732 222.796 103.608 223.685C108.234 224.033 112 220.239 112 215.6C112 210.961 108.232 207.238 103.611 206.83C93.9844 205.978 84.5271 203.664 75.5685 199.953C64.0183 195.169 53.5236 188.157 44.6834 179.317C35.8433 170.476 28.8309 159.982 24.0467 148.431C19.2624 136.881 16.8 124.502 16.8 112C16.8 99.4982 19.2624 87.1187 24.0467 75.5685C28.8309 64.0183 35.8433 53.5236 44.6834 44.6834C53.5236 35.8433 64.0183 28.8309 75.5685 24.0467C84.527 20.3359 93.9844 18.022 103.611 17.1703C108.232 16.7615 112 13.0392 112 8.39999Z" fill="#194F59"/>
<path d="M98.6663 142H85.333C84.449 142 83.6011 141.648 82.976 141.023C82.3509 140.398 81.9997 139.55 81.9997 138.666V125.333C81.9997 124.449 81.6485 123.601 81.0234 122.976C80.3982 122.351 79.5504 122 78.6663 122C77.7823 122 76.9344 122.351 76.3093 122.976C75.6842 123.601 75.333 124.449 75.333 125.333V138.666C75.333 141.318 76.3866 143.862 78.2619 145.737C80.1373 147.613 82.6808 148.666 85.333 148.666H98.6663C99.5504 148.666 100.398 148.315 101.023 147.69C101.648 147.065 102 146.217 102 145.333C102 144.449 101.648 143.601 101.023 142.976C100.398 142.351 99.5504 142 98.6663 142ZM145.333 122C144.449 122 143.601 122.351 142.976 122.976C142.351 123.601 142 124.449 142 125.333V138.666C142 139.55 141.648 140.398 141.023 141.023C140.398 141.648 139.55 142 138.666 142H125.333C124.449 142 123.601 142.351 122.976 142.976C122.351 143.601 122 144.449 122 145.333C122 146.217 122.351 147.065 122.976 147.69C123.601 148.315 124.449 148.666 125.333 148.666H138.666C141.318 148.666 143.862 147.613 145.737 145.737C147.613 143.862 148.666 141.318 148.666 138.666V125.333C148.666 124.449 148.315 123.601 147.69 122.976C147.065 122.351 146.217 122 145.333 122ZM138.666 75.333H125.333C124.449 75.333 123.601 75.6842 122.976 76.3093C122.351 76.9344 122 77.7823 122 78.6663C122 79.5504 122.351 80.3982 122.976 81.0234C123.601 81.6485 124.449 81.9997 125.333 81.9997H138.666C139.55 81.9997 140.398 82.3509 141.023 82.976C141.648 83.6011 142 84.449 142 85.333V98.6663C142 99.5504 142.351 100.398 142.976 101.023C143.601 101.648 144.449 102 145.333 102C146.217 102 147.065 101.648 147.69 101.023C148.315 100.398 148.666 99.5504 148.666 98.6663V85.333C148.666 82.6808 147.613 80.1373 145.737 78.2619C143.862 76.3866 141.318 75.333 138.666 75.333ZM78.6663 102C79.5504 102 80.3982 101.648 81.0234 101.023C81.6485 100.398 81.9997 99.5504 81.9997 98.6663V85.333C81.9997 84.449 82.3509 83.6011 82.976 82.976C83.6011 82.3509 84.449 81.9997 85.333 81.9997H98.6663C99.5504 81.9997 100.398 81.6485 101.023 81.0234C101.648 80.3982 102 79.5504 102 78.6663C102 77.7823 101.648 76.9344 101.023 76.3093C100.398 75.6842 99.5504 75.333 98.6663 75.333H85.333C82.6808 75.333 80.1373 76.3866 78.2619 78.2619C76.3866 80.1373 75.333 82.6808 75.333 85.333V98.6663C75.333 99.5504 75.6842 100.398 76.3093 101.023C76.9344 101.648 77.7823 102 78.6663 102ZM105.333 88.6663H91.9997C91.1156 88.6663 90.2678 89.0175 89.6427 89.6427C89.0175 90.2678 88.6663 91.1156 88.6663 91.9997V105.333C88.6663 106.217 89.0175 107.065 89.6427 107.69C90.2678 108.315 91.1156 108.666 91.9997 108.666H105.333C106.217 108.666 107.065 108.315 107.69 107.69C108.315 107.065 108.666 106.217 108.666 105.333V91.9997C108.666 91.1156 108.315 90.2678 107.69 89.6427C107.065 89.0175 106.217 88.6663 105.333 88.6663ZM102 102H95.333V95.333H102V102ZM118.666 108.666H132C132.884 108.666 133.732 108.315 134.357 107.69C134.982 107.065 135.333 106.217 135.333 105.333V91.9997C135.333 91.1156 134.982 90.2678 134.357 89.6427C133.732 89.0175 132.884 88.6663 132 88.6663H118.666C117.782 88.6663 116.934 89.0175 116.309 89.6427C115.684 90.2678 115.333 91.1156 115.333 91.9997V105.333C115.333 106.217 115.684 107.065 116.309 107.69C116.934 108.315 117.782 108.666 118.666 108.666ZM122 95.333H128.666V102H122V95.333ZM105.333 115.333H91.9997C91.1156 115.333 90.2678 115.684 89.6427 116.309C89.0175 116.934 88.6663 117.782 88.6663 118.666V132C88.6663 132.884 89.0175 133.732 89.6427 134.357C90.2678 134.982 91.1156 135.333 91.9997 135.333H105.333C106.217 135.333 107.065 134.982 107.69 134.357C108.315 133.732 108.666 132.884 108.666 132V118.666C108.666 117.782 108.315 116.934 107.69 116.309C107.065 115.684 106.217 115.333 105.333 115.333ZM102 128.666H95.333V122H102V128.666ZM118.666 125.333C119.55 125.333 120.398 124.982 121.023 124.357C121.648 123.732 122 122.884 122 122C122.884 122 123.732 121.648 124.357 121.023C124.982 120.398 125.333 119.55 125.333 118.666C125.333 117.782 124.982 116.934 124.357 116.309C123.732 115.684 122.884 115.333 122 115.333H118.666C117.782 115.333 116.934 115.684 116.309 116.309C115.684 116.934 115.333 117.782 115.333 118.666V122C115.333 122.884 115.684 123.732 116.309 124.357C116.934 124.982 117.782 125.333 118.666 125.333ZM132 115.333C131.116 115.333 130.268 115.684 129.643 116.309C129.018 116.934 128.666 117.782 128.666 118.666V128.666C127.782 128.666 126.934 129.018 126.309 129.643C125.684 130.268 125.333 131.116 125.333 132C125.333 132.884 125.684 133.732 126.309 134.357C126.934 134.982 127.782 135.333 128.666 135.333H132C132.884 135.333 133.732 134.982 134.357 134.357C134.982 133.732 135.333 132.884 135.333 132V118.666C135.333 117.782 134.982 116.934 134.357 116.309C133.732 115.684 132.884 115.333 132 115.333ZM118.666 128.666C118.007 128.666 117.363 128.862 116.814 129.228C116.266 129.594 115.839 130.115 115.587 130.724C115.334 131.333 115.268 132.003 115.397 132.65C115.526 133.297 115.843 133.891 116.309 134.357C116.775 134.823 117.369 135.14 118.016 135.269C118.663 135.398 119.333 135.332 119.942 135.079C120.551 134.827 121.072 134.4 121.438 133.852C121.804 133.303 122 132.659 122 132C122 131.116 121.648 130.268 121.023 129.643C120.398 129.018 119.55 128.666 118.666 128.666Z" fill="#194F59"/>
</svg>
