<svg width="210" height="32" viewBox="0 0 210 32" fill="none" xmlns="http://www.w3.org/2000/svg">
<path d="M173.104 0.999892L173.504 24.4999H173.304L166.504 0.999892H155.304V30.5996H162.704L162.304 6.30036H162.505L169.804 30.5996H180.505V0.999892H173.104ZM32.2031 0.999892L26.6034 30.9006H34.7037L38.8036 3.70029H39.0034L43.0039 30.8998H51.0039L45.5036 0.999892H32.2031ZM77.4032 0.999892L73.7038 23.8002H73.5032L69.8037 0.999892H57.6035L57.0032 30.9006H64.5033L64.7039 3.99957H64.8034L69.8029 30.8998H77.4032L82.4036 4.00043H82.6042L82.8032 30.8998H90.3032L89.6035 0.999892H77.4032ZM14.0035 22.3998C14.3028 23.0996 14.2033 24.1003 14.103 24.6003C13.9032 25.6002 13.2035 26.6001 11.2028 26.6001C9.30335 26.6001 8.20312 25.5007 8.20312 23.8997V21.0003H0.203125V23.3003C0.203125 30.0002 5.50272 32 11.1033 32C16.5033 32 21.0028 30.0997 21.7034 25.1997C22.103 22.5996 21.8029 20.9 21.7034 20.2997C20.303 14.0002 8.90375 12.2002 8.10279 8.69975C8.00332 8.09946 8.00332 7.50006 8.10279 7.09958C8.30346 6.09969 9.00321 5.09979 10.8032 5.09979C12.6032 5.09979 13.6039 6.19915 13.6039 7.8002V9.60018H21.1031V7.50005C21.1031 0.999891 15.2032 0 11.003 0C5.7034 0 1.30335 1.79998 0.503267 6.59963C0.302591 7.89966 0.203125 9.10023 0.602732 10.6001C1.8033 16.8001 12.5037 18.6001 14.0027 22.3998H14.0035ZM111.304 22.3998C111.604 23.1004 111.503 24 111.404 24.6003C111.203 25.6002 110.503 26.6001 108.504 26.6001C106.603 26.6001 105.504 25.5007 105.504 23.8997V21.0003H97.5032V23.3003C97.5032 29.8999 102.703 31.9005 108.304 31.9005C113.704 31.9005 118.104 30.1006 118.804 25.1002C119.204 22.5002 118.904 20.9 118.804 20.2002C117.604 14.0002 106.303 12.0999 105.504 8.70062C105.404 8.10034 105.404 7.50006 105.504 7.09958C105.704 6.09969 106.404 5.09979 108.204 5.09979C109.903 5.09979 111.004 6.19915 111.004 7.8002V9.60018H118.403V7.50005C118.403 0.999891 112.604 0 108.404 0C103.104 0 98.8032 1.69964 98.004 6.59963C97.8033 7.89966 97.8033 9.10023 98.1034 10.6001C99.304 16.8001 109.804 18.4997 111.304 22.3998ZM136.504 26.4003C138.604 26.4003 139.204 24.9999 139.403 24.1998C139.504 23.9005 139.504 23.3997 139.504 23.1004V0.999892H147.103V22.5002C147.103 23.1004 147.103 24.1998 147.004 24.4999C146.504 30.1006 142.104 31.9005 136.604 31.9005C131.104 31.9005 126.704 30.1006 126.203 24.4999C126.203 24.1998 126.104 23.1004 126.104 22.5002V0.999892H133.703V23.1004C133.703 23.5001 133.703 23.8997 133.804 24.1998C133.804 24.9999 134.404 26.4003 136.504 26.4003ZM198.904 26.1001C201.104 26.1001 201.804 24.6997 202.004 23.8997C202.104 23.6004 202.104 23.0996 202.104 22.8003V18.4997H199.004V14.0997H209.604V22.1006C209.604 22.7 209.604 23.0996 209.504 24.1003C209.004 29.5997 204.304 31.5 199.004 31.5C193.704 31.5 189.005 29.5997 188.505 24.1003C188.404 23.0996 188.404 22.7 188.404 22.0997V9.50071C188.404 8.99989 188.505 8 188.505 7.50005C189.204 1.89944 193.705 0.0994675 199.004 0.0994675C204.304 0.0994675 208.905 1.89944 209.504 7.50005C209.604 8.39961 209.604 9.49984 209.604 9.49984V10.4997H202.104V8.80009C202.104 8.80009 202.104 8.09947 202.004 7.69986C201.904 7.00011 201.304 5.50028 199.004 5.50028C196.805 5.50028 196.204 6.89978 196.005 7.69986C195.904 8.09947 195.904 8.60028 195.904 9.10023V22.8003C195.904 23.1999 195.904 23.5995 196.005 23.8997C196.005 24.6997 196.805 26.1001 198.904 26.1001Z" fill="#808080"/>
</svg>
