<svg width="48" height="48" viewBox="0 0 48 48" fill="none" xmlns="http://www.w3.org/2000/svg">
<path d="M34 22.0004H18.82L25.42 15.4204C25.7966 15.0438 26.0082 14.533 26.0082 14.0004C26.0082 13.4678 25.7966 12.957 25.42 12.5804C25.0434 12.2038 24.5326 11.9922 24 11.9922C23.4674 11.9922 22.9566 12.2038 22.58 12.5804L12.58 22.5804C12.398 22.7706 12.2552 22.9949 12.16 23.2404C11.96 23.7273 11.96 24.2734 12.16 24.7604C12.2552 25.0059 12.398 25.2302 12.58 25.4204L22.58 35.4204C22.766 35.6078 22.9872 35.7566 23.2309 35.8582C23.4746 35.9597 23.736 36.012 24 36.012C24.2641 36.012 24.5255 35.9597 24.7692 35.8582C25.0129 35.7566 25.2341 35.6078 25.42 35.4204C25.6075 35.2344 25.7563 35.0132 25.8578 34.7695C25.9594 34.5258 26.0116 34.2644 26.0116 34.0004C26.0116 33.7363 25.9594 33.4749 25.8578 33.2312C25.7563 32.9875 25.6075 32.7663 25.42 32.5804L18.82 26.0004H34C34.5305 26.0004 35.0392 25.7897 35.4143 25.4146C35.7893 25.0395 36 24.5308 36 24.0004C36 23.4699 35.7893 22.9612 35.4143 22.5862C35.0392 22.2111 34.5305 22.0004 34 22.0004Z" fill="#231F20"/>
</svg>
