<svg width="224" height="224" viewBox="0 0 224 224" fill="none" xmlns="http://www.w3.org/2000/svg">
<path d="M224 112C224 173.856 173.856 224 112 224C50.1441 224 0 173.856 0 112C0 50.1441 50.1441 0 112 0C173.856 0 224 50.1441 224 112ZM16.8 112C16.8 164.578 59.4225 207.2 112 207.2C164.578 207.2 207.2 164.578 207.2 112C207.2 59.4225 164.578 16.8 112 16.8C59.4225 16.8 16.8 59.4225 16.8 112Z" fill="#E6E6E7"/>
<path d="M112 0C173.856 0 224 50.1441 224 112C224 173.856 173.856 224 112 224C50.1441 224 0 173.856 0 112C0 50.1441 50.1441 0 112 0ZM112 207.2C164.578 207.2 207.2 164.578 207.2 112C207.2 59.4225 164.578 16.8 112 16.8C59.4225 16.8 16.8 59.4225 16.8 112C16.8 164.578 59.4225 207.2 112 207.2Z" fill="#194F59"/>
<path d="M119.867 119.434C117.639 121.23 114.863 122.21 112 122.21C109.138 122.21 106.362 121.23 104.134 119.434C103.453 118.868 102.575 118.596 101.694 118.677C100.813 118.758 99.9995 119.186 99.4337 119.867C98.8679 120.548 98.5957 121.425 98.6769 122.307C98.7582 123.188 99.1863 124.001 99.867 124.567C103.271 127.409 107.566 128.966 112 128.966C116.435 128.966 120.729 127.409 124.134 124.567C124.814 124.001 125.242 123.188 125.324 122.307C125.405 121.425 125.133 120.548 124.567 119.867C124.287 119.53 123.943 119.251 123.555 119.047C123.167 118.843 122.743 118.717 122.307 118.677C121.425 118.596 120.548 118.868 119.867 119.434ZM102 108.667C102.66 108.667 103.304 108.471 103.852 108.105C104.4 107.739 104.828 107.218 105.08 106.609C105.332 106 105.398 105.33 105.27 104.683C105.141 104.037 104.824 103.443 104.357 102.977C103.891 102.51 103.297 102.193 102.651 102.064C102.004 101.936 101.334 102.002 100.725 102.254C100.116 102.506 99.595 102.934 99.2288 103.482C98.8625 104.03 98.667 104.674 98.667 105.334C98.667 106.218 99.0182 107.066 99.6433 107.691C100.268 108.316 101.116 108.667 102 108.667ZM122 102C121.341 102 120.697 102.196 120.148 102.562C119.6 102.928 119.173 103.449 118.921 104.058C118.668 104.667 118.602 105.337 118.731 105.984C118.86 106.631 119.177 107.225 119.643 107.691C120.109 108.157 120.703 108.474 121.35 108.603C121.997 108.732 122.667 108.666 123.276 108.413C123.885 108.161 124.406 107.734 124.772 107.186C125.138 106.637 125.334 105.993 125.334 105.334C125.334 104.45 124.982 103.602 124.357 102.977C123.732 102.352 122.884 102 122 102ZM112 78.667C105.408 78.667 98.963 80.622 93.4813 84.2847C87.9997 87.9474 83.7273 93.1533 81.2044 99.2442C78.6814 105.335 78.0213 112.037 79.3075 118.503C80.5937 124.969 83.7684 130.909 88.4301 135.571C93.0919 140.232 99.0313 143.407 105.497 144.693C111.963 145.979 118.666 145.319 124.756 142.796C130.847 140.273 136.053 136.001 139.716 130.519C143.379 125.038 145.334 118.593 145.334 112C145.334 107.623 144.471 103.288 142.796 99.2442C141.121 95.2 138.666 91.5254 135.571 88.4301C132.475 85.3348 128.801 82.8795 124.756 81.2043C120.712 79.5292 116.378 78.667 112 78.667ZM112 138.667C106.726 138.667 101.57 137.103 97.1851 134.173C92.7998 131.243 89.3819 127.078 87.3636 122.205C85.3452 117.333 84.8171 111.971 85.8461 106.798C86.875 101.625 89.4148 96.8735 93.1442 93.1441C96.8736 89.4147 101.625 86.875 106.798 85.8461C111.971 84.8171 117.333 85.3452 122.205 87.3635C127.078 89.3819 131.243 92.7998 134.173 97.1851C137.103 101.57 138.667 106.726 138.667 112C138.667 119.073 135.857 125.856 130.857 130.857C125.856 135.857 119.073 138.667 112 138.667Z" fill="#194F59"/>
</svg>
