<svg width="32" height="32" viewBox="0 0 32 32" fill="none" xmlns="http://www.w3.org/2000/svg">
<path d="M17.8796 16.0002L26.2796 7.61358C26.5307 7.36251 26.6717 7.02198 26.6717 6.66691C26.6717 6.31185 26.5307 5.97132 26.2796 5.72025C26.0285 5.46918 25.688 5.32812 25.3329 5.32812C24.9779 5.32812 24.6373 5.46918 24.3863 5.72025L15.9996 14.1202L7.61293 5.72025C7.36185 5.46918 7.02133 5.32813 6.66626 5.32813C6.31119 5.32813 5.97066 5.46918 5.71959 5.72025C5.46852 5.97132 5.32747 6.31185 5.32747 6.66691C5.32747 7.02198 5.46852 7.36251 5.71959 7.61358L14.1196 16.0002L5.71959 24.3869C5.59462 24.5109 5.49543 24.6583 5.42774 24.8208C5.36005 24.9833 5.3252 25.1576 5.3252 25.3336C5.3252 25.5096 5.36005 25.6839 5.42774 25.8463C5.49543 26.0088 5.59462 26.1563 5.71959 26.2802C5.84354 26.4052 5.99101 26.5044 6.15349 26.5721C6.31597 26.6398 6.49024 26.6746 6.66626 26.6746C6.84228 26.6746 7.01655 26.6398 7.17903 26.5721C7.34151 26.5044 7.48898 26.4052 7.61293 26.2802L15.9996 17.8802L24.3863 26.2802C24.5102 26.4052 24.6577 26.5044 24.8202 26.5721C24.9826 26.6398 25.1569 26.6746 25.3329 26.6746C25.5089 26.6746 25.6832 26.6398 25.8457 26.5721C26.0082 26.5044 26.1556 26.4052 26.2796 26.2802C26.4046 26.1563 26.5038 26.0088 26.5714 25.8463C26.6391 25.6839 26.674 25.5096 26.674 25.3336C26.674 25.1576 26.6391 24.9833 26.5714 24.8208C26.5038 24.6583 26.4046 24.5109 26.2796 24.3869L17.8796 16.0002Z" fill="#231F20"/>
</svg>
