<svg width="30" height="30" viewBox="0 0 30 30" fill="none" xmlns="http://www.w3.org/2000/svg">
<g clip-path="url(#clip0_520_6346)">
<path d="M18.75 22.5C19.4404 22.5 20 23.0596 20 23.75C20 24.4404 19.4404 25 18.75 25H7.5C6.80964 25 6.25 24.4404 6.25 23.75C6.25 23.0596 6.80964 22.5 7.5 22.5H18.75ZM25 13.75C25.6904 13.75 26.25 14.3096 26.25 15C26.25 15.6904 25.6904 16.25 25 16.25H5C4.30964 16.25 3.75 15.6904 3.75 15C3.75 14.3096 4.30964 13.75 5 13.75H25ZM22.5 5C23.1904 5 23.75 5.55964 23.75 6.25C23.75 6.94036 23.1904 7.5 22.5 7.5H11.25C10.5596 7.5 10 6.94036 10 6.25C10 5.55964 10.5596 5 11.25 5H22.5Z" fill="#231F20"/>
</g>
<defs>
<clipPath id="clip0_520_6346">
<rect width="30" height="30" fill="white"/>
</clipPath>
</defs>
</svg>
