<svg width="32" height="32" viewBox="0 0 32 32" fill="none" xmlns="http://www.w3.org/2000/svg">
<path fill-rule="evenodd" clip-rule="evenodd" d="M16.9558 5.0608C16.3783 4.66313 15.6223 4.66313 15.0449 5.0608L5.5248 11.6164C5.08068 11.9222 4.81028 12.415 4.79028 12.9442C4.72118 14.7734 4.64792 17.9768 4.8491 20.2505C5.00086 21.9658 5.4048 24.2332 5.73291 25.901C5.88527 26.6757 6.55948 27.2381 7.36082 27.2381H11.7928C11.9816 27.2381 12.1346 27.0817 12.1346 26.8889V21.3008C12.1346 19.9505 13.2061 18.8558 14.5278 18.8558H17.8791C19.2009 18.8558 20.2723 19.9505 20.2723 21.3008V26.8889C20.2723 27.0817 20.4254 27.2381 20.6142 27.2381H24.6398C25.4411 27.2381 26.1154 26.6757 26.2678 25.901C26.5958 24.2332 26.9998 21.9658 27.1515 20.2505C27.3527 17.9768 27.2795 14.7734 27.2103 12.9442C27.1903 12.415 26.9199 11.9222 26.4758 11.6164L16.9558 5.0608ZM13.8983 3.32314C15.1689 2.44828 16.8318 2.44828 18.1023 3.32314L27.6223 9.87873C28.5946 10.5482 29.2142 11.6489 29.2601 12.8634C29.3291 14.6906 29.4089 18.0161 29.1945 20.4392C29.0321 22.2758 28.6085 24.6384 28.2789 26.314C27.9285 28.095 26.3902 29.3337 24.6398 29.3337H20.6142C19.2925 29.3337 18.221 28.239 18.221 26.8889V21.3008C18.221 21.1078 18.0679 20.9514 17.8791 20.9514H14.5278C14.339 20.9514 14.1859 21.1078 14.1859 21.3008V26.8889C14.1859 28.239 13.1145 29.3337 11.7928 29.3337H7.36082C5.61047 29.3337 4.07218 28.095 3.72183 26.314C3.39222 24.6384 2.96864 22.2758 2.80615 20.4392C2.59176 18.0161 2.6715 14.6906 2.74052 12.8634C2.78642 11.6489 3.40602 10.5482 4.37827 9.87873L13.8983 3.32314Z" fill="white"/>
</svg>
