<svg width="32" height="32" viewBox="0 0 32 32" fill="none" xmlns="http://www.w3.org/2000/svg">
<path d="M17.333 18.667H11.9997C11.6461 18.667 11.3069 18.8075 11.0569 19.0575C10.8068 19.3076 10.6663 19.6467 10.6663 20.0003C10.6663 20.3539 10.8068 20.6931 11.0569 20.9431C11.3069 21.1932 11.6461 21.3337 11.9997 21.3337H17.333C17.6866 21.3337 18.0258 21.1932 18.2758 20.9431C18.5259 20.6931 18.6663 20.3539 18.6663 20.0003C18.6663 19.6467 18.5259 19.3076 18.2758 19.0575C18.0258 18.8075 17.6866 18.667 17.333 18.667ZM22.6663 5.33366H21.093C20.8179 4.55559 20.3089 3.88166 19.6358 3.40424C18.9626 2.92683 18.1583 2.66931 17.333 2.66699H14.6663C13.8411 2.66931 13.0367 2.92683 12.3636 3.40424C11.6904 3.88166 11.1814 4.55559 10.9063 5.33366H9.33301C8.27214 5.33366 7.25473 5.75509 6.50458 6.50523C5.75444 7.25538 5.33301 8.27279 5.33301 9.33366V25.3337C5.33301 26.3945 5.75444 27.4119 6.50458 28.1621C7.25473 28.9122 8.27214 29.3337 9.33301 29.3337H22.6663C23.7272 29.3337 24.7446 28.9122 25.4948 28.1621C26.2449 27.4119 26.6663 26.3945 26.6663 25.3337V9.33366C26.6663 8.27279 26.2449 7.25538 25.4948 6.50523C24.7446 5.75509 23.7272 5.33366 22.6663 5.33366ZM13.333 6.66699C13.333 6.31337 13.4735 5.97423 13.7235 5.72418C13.9736 5.47413 14.3127 5.33366 14.6663 5.33366H17.333C17.6866 5.33366 18.0258 5.47413 18.2758 5.72418C18.5259 5.97423 18.6663 6.31337 18.6663 6.66699V8.00033H13.333V6.66699ZM23.9997 25.3337C23.9997 25.6873 23.8592 26.0264 23.6091 26.2765C23.3591 26.5265 23.02 26.667 22.6663 26.667H9.33301C8.97939 26.667 8.64025 26.5265 8.3902 26.2765C8.14015 26.0264 7.99967 25.6873 7.99967 25.3337V9.33366C7.99967 8.98004 8.14015 8.6409 8.3902 8.39085C8.64025 8.1408 8.97939 8.00033 9.33301 8.00033H10.6663V9.33366C10.6663 9.68728 10.8068 10.0264 11.0569 10.2765C11.3069 10.5265 11.6461 10.667 11.9997 10.667H19.9997C20.3533 10.667 20.6924 10.5265 20.9425 10.2765C21.1925 10.0264 21.333 9.68728 21.333 9.33366V8.00033H22.6663C23.02 8.00033 23.3591 8.1408 23.6091 8.39085C23.8592 8.6409 23.9997 8.98004 23.9997 9.33366V25.3337ZM19.9997 13.3337H11.9997C11.6461 13.3337 11.3069 13.4741 11.0569 13.7242C10.8068 13.9742 10.6663 14.3134 10.6663 14.667C10.6663 15.0206 10.8068 15.3598 11.0569 15.6098C11.3069 15.8598 11.6461 16.0003 11.9997 16.0003H19.9997C20.3533 16.0003 20.6924 15.8598 20.9425 15.6098C21.1925 15.3598 21.333 15.0206 21.333 14.667C21.333 14.3134 21.1925 13.9742 20.9425 13.7242C20.6924 13.4741 20.3533 13.3337 19.9997 13.3337Z" fill="#194F59"/>
</svg>
