<svg width="32" height="32" viewBox="0 0 32 32" fill="none" xmlns="http://www.w3.org/2000/svg">
<path d="M22.6663 2.66699H9.33301C8.27214 2.66699 7.25473 3.08842 6.50458 3.83857C5.75444 4.58871 5.33301 5.60613 5.33301 6.66699V25.3337C5.33301 26.3945 5.75444 27.4119 6.50458 28.1621C7.25473 28.9122 8.27214 29.3337 9.33301 29.3337H22.6663C23.7272 29.3337 24.7446 28.9122 25.4948 28.1621C26.2449 27.4119 26.6663 26.3945 26.6663 25.3337V6.66699C26.6663 5.60613 26.2449 4.58871 25.4948 3.83857C24.7446 3.08842 23.7272 2.66699 22.6663 2.66699ZM23.9997 25.3337C23.9997 25.6873 23.8592 26.0264 23.6091 26.2765C23.3591 26.5265 23.02 26.667 22.6663 26.667H9.33301C8.97939 26.667 8.64025 26.5265 8.3902 26.2765C8.14015 26.0264 7.99967 25.6873 7.99967 25.3337V6.66699C7.99967 6.31337 8.14015 5.97423 8.3902 5.72418C8.64025 5.47413 8.97939 5.33366 9.33301 5.33366H22.6663C23.02 5.33366 23.3591 5.47413 23.6091 5.72418C23.8592 5.97423 23.9997 6.31337 23.9997 6.66699V25.3337ZM16.9463 21.7203C16.7924 21.5598 16.6007 21.4403 16.3888 21.3728C16.1769 21.3052 15.9515 21.2918 15.733 21.3337L15.493 21.4137C15.408 21.4428 15.3273 21.4832 15.253 21.5337L15.053 21.6937C14.9316 21.8205 14.8365 21.97 14.773 22.1337C14.6709 22.3765 14.643 22.6441 14.6928 22.9027C14.7427 23.1614 14.868 23.3995 15.053 23.587C15.1856 23.7043 15.3337 23.803 15.493 23.8803C15.7371 23.9808 16.0055 24.0065 16.2642 23.9543C16.5229 23.9021 16.7603 23.7742 16.9463 23.587C17.1895 23.3419 17.3281 23.0121 17.333 22.667C17.3375 22.4921 17.301 22.3186 17.2263 22.1603C17.1588 21.9987 17.0641 21.8499 16.9463 21.7203Z" fill="#194F59"/>
</svg>
