<svg width="32" height="32" viewBox="0 0 32 32" fill="none" xmlns="http://www.w3.org/2000/svg">
<path d="M15.9994 2.66699C13.3623 2.66699 10.7844 3.44898 8.59175 4.91406C6.3991 6.37915 4.69013 8.46153 3.68096 10.8979C2.67179 13.3342 2.40775 16.0151 2.92222 18.6015C3.43669 21.1879 4.70656 23.5637 6.57126 25.4284C8.43597 27.2931 10.8117 28.563 13.3982 29.0775C15.9846 29.5919 18.6655 29.3279 21.1018 28.3187C23.5382 27.3096 25.6205 25.6006 27.0856 23.4079C28.5507 21.2153 29.3327 18.6374 29.3327 16.0003C29.3327 14.2494 28.9878 12.5156 28.3177 10.8979C27.6477 9.2802 26.6656 7.81035 25.4274 6.57223C24.1893 5.33412 22.7195 4.35199 21.1018 3.68193C19.4841 3.01187 17.7503 2.66699 15.9994 2.66699ZM15.9994 26.667C13.8897 26.667 11.8274 26.0414 10.0733 24.8693C8.31915 23.6973 6.95198 22.0314 6.14464 20.0823C5.33731 18.1332 5.12607 15.9885 5.53765 13.9194C5.94922 11.8502 6.96512 9.94961 8.45688 8.45785C9.94864 6.96609 11.8493 5.95019 13.9184 5.53862C15.9875 5.12704 18.1322 5.33828 20.0813 6.14561C22.0304 6.95295 23.6963 8.32012 24.8684 10.0742C26.0404 11.8284 26.666 13.8907 26.666 16.0003C26.666 18.8293 25.5422 21.5424 23.5418 23.5428C21.5414 25.5432 18.8283 26.667 15.9994 26.667ZM21.3327 14.667H10.666C10.3124 14.667 9.97326 14.8075 9.72321 15.0575C9.47316 15.3076 9.33269 15.6467 9.33269 16.0003C9.33269 16.3539 9.47316 16.6931 9.72321 16.9431C9.97326 17.1932 10.3124 17.3337 10.666 17.3337H21.3327C21.6863 17.3337 22.0255 17.1932 22.2755 16.9431C22.5255 16.6931 22.666 16.3539 22.666 16.0003C22.666 15.6467 22.5255 15.3076 22.2755 15.0575C22.0255 14.8075 21.6863 14.667 21.3327 14.667Z" fill="#808080"/>
</svg>
