<svg width="593" height="593" viewBox="0 0 593 593" fill="none" xmlns="http://www.w3.org/2000/svg">
<path d="M278.54 0.394142C263.006 1.35409 246.271 3.75395 231.698 6.87377C198.869 13.9934 183.736 20.073 172.526 30.4724C159.314 42.6317 155.23 63.1105 162.917 78.1496C165.159 82.4694 171.645 89.269 176.529 92.4688C186.378 98.7884 201.191 100.628 211.761 96.8685C218.807 94.3887 222.73 91.5888 233.94 81.0295C245.31 70.2301 251.236 65.8303 256.761 63.7505C268.531 59.3507 274.937 60.6306 298.157 71.91C307.606 76.5497 317.615 80.8695 320.257 81.5894C326.583 83.1093 336.271 83.1093 351.805 81.5094C361.574 80.4695 365.577 80.3895 370.782 81.1094C390.64 83.6693 399.608 98.7084 394.323 120.787C389.439 141.266 370.382 167.824 347.802 185.663C341.076 190.943 333.469 195.983 332.988 195.423C332.828 195.263 333.149 191.903 333.789 187.983C336.432 171.744 336.031 149.665 332.828 132.786C329.946 117.267 322.98 110.468 315.373 115.747C313.931 116.707 307.286 125.347 300.48 134.946C293.754 144.546 287.988 152.385 287.748 152.385C287.508 152.385 285.987 151.425 284.305 150.305C282.383 149.026 279.261 145.266 276.218 140.466C270.052 131.027 266.529 127.507 260.204 124.387C249.554 119.187 237.223 119.507 225.613 125.187C208.558 133.506 195.906 156.545 196.627 178.144C196.867 185.183 197.027 186.143 199.269 189.263C202.793 194.303 207.997 196.703 216.084 197.023C224.332 197.423 230.577 195.903 242.508 190.863C254.198 185.823 260.684 183.743 267.25 183.104C276.698 182.144 284.786 186.063 288.789 193.503C291.271 198.143 291.271 208.702 288.789 214.222C286.067 220.141 282.383 224.701 277.419 228.381C271.253 233.021 265.889 235.58 250.755 241.26C243.549 243.98 235.221 247.5 232.099 249.1C224.091 253.179 216.885 260.299 212.241 268.619C205.275 281.018 200.711 283.418 189.421 280.458C185.978 279.578 182.134 278.458 180.933 277.978C177.17 276.618 169.323 277.018 165.559 278.858C161.236 280.858 156.832 285.738 154.429 291.017C149.145 302.377 152.348 315.016 163.478 326.855C174.688 338.774 188.38 345.814 222.81 357.093C257.161 368.453 271.093 375.572 283.344 387.972C290.07 394.771 294.234 401.731 297.036 410.37C302.401 427.009 299.198 442.208 288.068 453.328C285.586 455.808 277.739 461.727 270.613 466.447C251.876 479.006 246.031 485.486 242.748 497.085C240.266 505.965 241.067 519.964 244.75 534.203C245.39 536.683 245.711 538.763 245.31 538.763C244.99 538.763 242.508 536.443 239.785 533.563C230.097 523.164 225.052 508.285 222.17 480.766C218.567 447.728 216.084 439.249 205.115 423.09C193.744 406.451 192.063 402.211 187.659 380.212C182.935 356.853 179.252 348.854 168.362 338.215C161.236 331.335 159.794 330.295 147.623 322.375C125.203 307.896 120.639 304.616 113.513 297.577C103.104 287.257 99.0201 279.258 97.0984 265.499C95.1767 252.22 98.4596 235.18 107.428 211.182C117.517 184.143 120.399 172.624 120.399 159.665C120.399 146.866 116.796 136.146 109.429 126.947C100.301 115.667 89.892 110.948 78.2817 112.948C62.1073 115.747 48.5752 129.427 33.6019 157.985C16.7068 190.303 5.97728 226.061 1.41322 264.779C-0.268279 279.258 -0.508492 311.976 1.01286 326.375C3.17479 347.494 8.13921 370.933 14.3848 389.572C43.3706 477.086 114.154 548.282 200.871 577.481C269.892 600.759 346.841 597.719 413.86 569.241C434.679 560.362 439.804 556.682 437.401 552.202C436.04 549.562 435.159 549.162 430.756 549.162C427.793 549.162 424.67 550.122 417.944 553.082C388.958 565.961 366.859 572.441 337.392 576.921C321.058 579.4 289.43 580.28 272.535 578.841C235.221 575.561 201.672 566.201 169.243 549.962C97.4187 513.964 41.1286 444.608 21.8314 368.133C18.9488 356.773 16.0663 341.654 14.625 329.975C13.1036 318.776 13.1036 276.618 14.5449 265.179C19.7495 223.901 31.7602 187.183 50.7371 154.385C62.0272 134.786 71.6358 126.147 82.8457 125.347C98.1394 124.227 108.629 140.306 107.348 163.025C106.787 173.104 104.545 181.664 96.2977 205.982C86.6892 234.221 84.3671 244.7 84.3671 259.579C84.3671 273.018 87.4098 284.298 93.6554 293.657C100.622 304.136 108.709 311.016 132.41 326.775C147.944 337.015 153.228 341.254 160.195 348.694C168.682 357.733 172.045 364.853 175.168 380.052C176.529 386.372 177.49 389.412 178.771 390.691C180.693 392.611 180.773 393.091 179.652 395.891C179.252 397.011 179.171 397.971 179.572 397.971C179.892 397.971 180.212 399.331 180.292 400.931C180.453 404.691 184.216 412.53 192.543 426.449C205.115 447.648 206.956 453.648 211.28 488.046C214.243 511.884 218.086 525.084 225.132 535.803C233.14 547.962 245.471 556.122 252.277 553.882C258.442 551.882 259.723 542.123 255.96 526.044C252.997 513.404 252.837 501.645 255.64 496.445C258.682 490.606 265.088 484.606 275.818 477.486C281.342 473.807 288.229 468.767 291.191 466.367C305.124 454.848 313.371 439.489 313.371 425.089C313.371 404.531 300.64 383.972 279.181 369.653C268.691 362.693 257.081 357.333 233.38 348.454C201.271 336.375 190.381 331.015 177.25 320.616C163.478 309.736 159.234 299.417 166.12 293.657C169.163 291.097 174.768 290.857 183.655 293.097C193.584 295.577 196.867 295.817 201.591 294.457C207.116 292.857 211.68 288.777 221.049 277.018C232.099 263.019 238.584 258.619 260.924 249.58C285.907 239.42 294.955 232.941 300.399 221.181C303.362 214.942 303.762 205.022 301.52 197.423C298.318 187.023 290.871 177.984 281.743 173.504C277.179 171.344 276.378 171.184 267.33 171.264C258.042 171.264 257.401 171.424 248.513 174.704C228.415 182.224 220.809 184.623 215.844 185.023C212.001 185.343 210.559 185.103 209.999 184.303C208.878 182.464 209.198 169.344 210.559 164.065C213.602 152.225 223.211 139.826 232.899 135.186C239.545 131.986 247.632 131.507 252.597 133.986C257.481 136.466 259.883 138.866 266.129 147.586C274.697 159.665 279.901 163.585 287.428 163.585C293.673 163.585 302.081 156.785 307.686 147.106C312.891 138.146 316.574 132.706 318.896 130.467L321.218 128.227L322.099 133.426C325.862 154.865 326.102 163.825 323.62 184.223C321.618 200.702 322.019 203.822 326.423 207.102C331.147 210.622 340.675 207.902 349.323 200.623C378.549 176.064 398.887 149.985 405.933 128.387C407.775 122.707 408.095 120.147 408.175 112.388C408.255 101.668 406.574 95.1086 401.85 87.1891C397.846 80.5495 394.083 76.9497 387.917 73.7499C378.549 68.8702 374.065 68.3902 341.796 69.1901C324.901 69.5901 320.097 68.6302 304.563 61.9106C279.1 50.8712 273.816 49.1913 264.127 49.1113C252.036 49.1113 246.431 52.2311 229.696 68.3902C218.727 78.9496 215.524 81.5894 210.479 84.0693C205.435 86.5491 203.673 87.0291 199.109 87.0291C188.86 87.1091 179.572 80.7095 174.527 69.9901C172.446 65.5904 172.045 63.8305 172.045 58.7907C172.045 51.3512 174.047 46.9514 179.892 41.1918C190.462 30.8724 220.729 20.873 256.52 15.9932C271.093 13.9134 302.962 13.5134 319.777 15.1133C369.741 19.913 415.782 36.1521 457.499 63.8305C487.846 83.9093 519.234 115.427 524.359 130.867C527.562 140.466 524.199 151.425 516.832 155.345C511.547 158.145 506.743 157.825 494.572 153.825C485.925 151.025 483.282 150.465 477.517 150.465C471.512 150.385 470.071 150.705 465.346 152.945C454.617 157.985 448.531 167.024 448.051 178.384C447.811 183.663 448.291 186.943 450.773 197.183C455.417 216.622 454.857 224.461 448.211 232.301C447.01 233.821 441.405 238.06 435.8 241.74C421.707 250.94 415.462 258.219 411.939 269.578C404.332 293.977 417.384 299.577 441.885 282.458C453.496 274.378 461.103 270.698 469.99 268.859C472.473 268.299 472.473 268.379 476.476 276.698C482.962 289.977 488.567 294.937 495.053 293.177C498.736 292.217 501.138 290.537 507.944 283.898C514.43 277.658 518.113 275.898 522.197 277.258C525.64 278.298 528.202 280.458 530.444 284.138C531.405 285.578 533.007 287.017 534.208 287.337C536.209 287.817 536.209 287.817 534.528 288.457C533.247 288.937 532.766 289.817 532.766 291.577C532.766 293.737 532.927 293.977 534.288 293.257C535.569 292.537 535.729 292.617 535.409 293.977C534.928 295.817 533.567 296.937 533.567 295.577C533.567 295.097 533.247 294.937 532.766 295.177C531.565 295.897 531.806 297.177 533.087 297.177C533.727 297.177 534.128 297.897 534.048 299.097C534.048 300.217 533.567 300.857 533.007 300.617C532.526 300.377 532.286 299.657 532.526 299.017C532.846 298.137 532.686 297.897 532.126 298.297C531.565 298.617 531.165 299.417 531.165 300.057C531.165 300.697 530.845 301.097 530.524 300.857C530.204 300.697 528.362 302.057 526.521 303.976C520.355 310.216 509.946 314.376 495.934 316.376C492.651 316.856 479.279 317.576 466.307 317.976C447.49 318.536 441.085 319.016 434.839 320.376C416.022 324.375 403.932 332.295 397.766 344.774C394.083 352.214 392.882 359.573 394.163 366.613C396.645 379.972 404.092 386.212 421.627 389.572C439.563 393.011 444.848 395.171 449.252 401.011C452.695 405.491 453.816 409.89 453.256 416.77C452.535 425.329 450.533 430.449 434.919 461.967C427.072 478.046 419.866 493.325 418.905 495.965C415.302 506.765 418.425 516.604 427.072 521.484C431.156 523.804 432.037 523.964 439.483 523.964C447.09 523.964 447.731 523.804 452.695 521.164C462.143 516.044 467.268 510.204 497.135 470.367C534.448 420.69 537.971 415.09 541.654 400.371C543.976 391.171 543.416 383.652 539.572 372.772C536.61 364.293 536.209 360.933 537.731 357.573C538.932 354.934 539.733 355.014 540.373 357.893C541.334 362.453 546.138 365.173 553.024 365.173C563.113 365.173 568.718 357.013 569.279 341.654C569.439 337.255 569.759 333.575 570 333.335C570.24 333.095 570.4 333.335 570.4 333.895C570.4 335.415 576.005 337.415 578.968 336.935C586.414 335.735 590.498 329.655 592.099 317.496C593.3 307.976 593.3 277.418 592.099 265.979C588.736 234.301 580.489 203.582 568.158 177.024C564.555 169.264 562.233 167.104 558.95 168.304C556.227 169.344 554.386 172.224 554.386 175.424C554.386 176.944 556.307 183.024 558.709 189.023C569.359 216.062 574.964 236.22 578.487 259.979C580.008 269.818 579.928 303.896 578.487 314.216L577.366 322.055L575.605 320.376C571.521 316.536 564.875 316.936 561.272 321.255C558.95 323.975 556.788 330.455 556.788 334.615C556.788 339.654 555.026 347.894 553.345 351.014L551.663 354.054L550.782 351.094C548.941 344.454 539.733 340.854 533.567 344.214C532.046 345.014 529.724 347.414 528.362 349.574C524.839 355.174 524.599 364.453 527.562 377.572C531.165 393.331 530.364 401.171 524.199 411.41C521.476 415.81 507.063 436.049 480.8 472.367C462.304 497.885 452.375 507.965 442.446 511.164C437.241 512.924 432.757 511.964 431.076 508.845C427.953 502.925 433.558 488.046 448.211 463.247C462.063 439.889 465.186 430.689 464.466 414.37C464.065 403.891 462.704 399.171 458.3 392.771C453.015 385.092 447.57 382.292 430.355 378.372C411.538 374.132 405.533 369.893 404.812 360.453C404.412 354.534 406.013 350.934 411.458 345.734C418.985 338.454 433.478 333.175 453.736 330.375C458.46 329.735 471.592 328.855 482.962 328.375C510.266 327.335 518.354 325.575 529.323 318.136C535.088 314.216 539.252 309.736 542.135 304.216C544.136 300.377 544.377 299.177 544.377 291.977C544.377 284.858 544.136 283.498 542.215 279.978C537.971 271.818 529.644 265.819 521.076 264.699C512.268 263.579 500.418 269.099 495.453 276.538L492.891 280.298L492.33 277.418C491.129 270.698 486.485 264.539 480.4 261.339C471.512 256.699 455.898 259.339 441.645 267.979C438.282 269.978 432.998 273.658 430.035 276.058C427.072 278.458 424.19 280.218 423.789 279.898C422.508 279.098 423.709 272.618 426.031 268.059C428.994 262.219 434.038 257.339 444.928 249.74C450.373 245.98 456.538 241.26 458.62 239.26C467.588 230.541 468.95 220.221 463.665 201.662C459.181 186.063 459.661 175.024 465.106 167.824C467.748 164.465 472.713 161.985 477.117 161.985C478.878 161.985 484.483 163.425 489.528 165.185C501.298 169.264 505.622 169.824 512.428 167.984C525.24 164.545 536.049 152.945 538.451 139.906C540.854 126.787 534.128 114.947 509.946 90.0689C471.752 50.7112 420.426 21.2729 367.659 8.39368C356.369 5.67383 337.152 2.39403 325.782 1.27409C314.012 0.0741604 289.51 -0.405812 278.54 0.394142Z" fill="#009F10"/>
</svg>
