<svg width="224" height="224" viewBox="0 0 224 224" fill="none" xmlns="http://www.w3.org/2000/svg">
<path d="M224 112C224 173.856 173.856 224 112 224C50.1441 224 0 173.856 0 112C0 50.1441 50.1441 0 112 0C173.856 0 224 50.1441 224 112ZM16.8 112C16.8 164.578 59.4225 207.2 112 207.2C164.578 207.2 207.2 164.578 207.2 112C207.2 59.4225 164.578 16.8 112 16.8C59.4225 16.8 16.8 59.4225 16.8 112Z" fill="#E6E6E7"/>
<path d="M112 8.39999C112 3.7608 108.234 -0.0327606 103.608 0.31485C91.7732 1.20412 80.1368 3.97023 69.1395 8.5255C55.551 14.154 43.2042 22.4039 32.804 32.804C22.4039 43.2042 14.154 55.551 8.52549 69.1395C3.97022 80.1369 1.20411 91.7732 0.31485 103.608C-0.0327648 108.234 3.76081 112 8.4 112C13.0392 112 16.7615 108.232 17.1703 103.611C18.022 93.9844 20.3359 84.5271 24.0467 75.5685C28.8309 64.0183 35.8433 53.5236 44.6834 44.6834C53.5236 35.8433 64.0183 28.8309 75.5685 24.0467C84.527 20.3359 93.9844 18.022 103.611 17.1703C108.232 16.7615 112 13.0392 112 8.39999Z" fill="#194F59"/>
<path d="M95.3327 92.0004C94.6735 92.0004 94.029 92.1959 93.4808 92.5621C92.9327 92.9284 92.5054 93.449 92.2531 94.0581C92.0008 94.6672 91.9348 95.3374 92.0635 95.984C92.1921 96.6306 92.5095 97.2246 92.9757 97.6907C93.4419 98.1569 94.0358 98.4744 94.6824 98.603C95.329 98.7316 95.9993 98.6656 96.6083 98.4133C97.2174 98.161 97.738 97.7338 98.1043 97.1856C98.4706 96.6375 98.6661 95.993 98.6661 95.3337C98.6661 94.4497 98.3149 93.6018 97.6898 92.9767C97.0646 92.3516 96.2168 92.0004 95.3327 92.0004ZM144.366 111.267L112.766 79.7337C112.455 79.3986 112.079 79.131 111.66 78.9475C111.242 78.764 110.79 78.6685 110.333 78.667H90.3327C89.894 78.6645 89.4592 78.7486 89.0531 78.9145C88.6469 79.0804 88.2775 79.3248 87.9661 79.6337L79.6327 87.9337C79.3238 88.2452 79.0794 88.6146 78.9135 89.0207C78.7476 89.4268 78.6635 89.8617 78.6661 90.3004V110.3C78.6783 111.183 79.0236 112.028 79.6327 112.667L111.266 144.334C111.905 144.943 112.75 145.288 113.633 145.3C114.071 145.303 114.506 145.219 114.912 145.053C115.319 144.887 115.688 144.643 115.999 144.334L144.366 115.967C144.675 115.656 144.919 115.286 145.085 114.88C145.251 114.474 145.335 114.039 145.333 113.6C145.312 112.729 144.967 111.897 144.366 111.267ZM113.633 137.3L85.3327 108.967V91.667L91.6661 85.3337H108.933L137.266 113.634L113.633 137.3Z" fill="#194F59"/>
</svg>
