<svg width="40" height="40" viewBox="0 0 40 40" fill="none" xmlns="http://www.w3.org/2000/svg">
<path d="M37.2792 10.6288C36.0015 11.1967 34.6263 11.5799 33.1835 11.7513C34.6567 10.8694 35.7863 9.47237 36.319 7.80586C34.941 8.62359 33.4156 9.21696 31.7907 9.53729C30.4904 8.15158 28.6369 7.28516 26.5858 7.28516C22.6481 7.28516 19.4555 10.4778 19.4555 14.4162C19.4555 14.9743 19.5183 15.5183 19.6404 16.0411C13.7137 15.7433 8.45873 12.9049 4.94154 8.59043C4.3277 9.64312 3.97634 10.868 3.97634 12.1761C3.97634 14.6497 5.23505 16.8327 7.14851 18.1112C5.98011 18.0738 4.88015 17.7528 3.91848 17.2187C3.91778 17.2483 3.91778 17.2786 3.91778 17.309C3.91778 20.7634 6.37593 23.6448 9.63841 24.301C9.0401 24.4633 8.41004 24.5508 7.75952 24.5508C7.2995 24.5508 6.85288 24.5063 6.41756 24.4224C7.3256 27.2552 9.95873 29.3175 13.0787 29.3747C10.6382 31.2874 7.56408 32.4276 4.22258 32.4276C3.64755 32.4276 3.07958 32.3937 2.52148 32.3274C5.67813 34.3516 9.42604 35.5313 13.4526 35.5313C26.5696 35.5313 33.7416 24.6658 33.7416 15.2424C33.7416 14.9334 33.7352 14.625 33.7218 14.3188C35.1146 13.3155 36.3239 12.0589 37.2792 10.6288Z" fill="white"/>
</svg>
