<svg width="24" height="24" viewBox="0 0 24 24" fill="none" xmlns="http://www.w3.org/2000/svg">
<path d="M16.9997 14.8303C16.8123 15.0166 16.5589 15.1211 16.2947 15.1211C16.0305 15.1211 15.7771 15.0166 15.5897 14.8303L11.9997 11.2903L8.4597 14.8303C8.27234 15.0166 8.01889 15.1211 7.7547 15.1211C7.49052 15.1211 7.23707 15.0166 7.0497 14.8303C6.95598 14.7373 6.88158 14.6267 6.83081 14.5049C6.78004 14.383 6.75391 14.2523 6.75391 14.1203C6.75391 13.9883 6.78004 13.8576 6.83081 13.7357C6.88158 13.6139 6.95598 13.5033 7.0497 13.4103L11.2897 9.1703C11.3827 9.07657 11.4933 9.00218 11.6151 8.95141C11.737 8.90064 11.8677 8.8745 11.9997 8.8745C12.1317 8.8745 12.2624 8.90064 12.3843 8.95141C12.5061 9.00218 12.6167 9.07657 12.7097 9.1703L16.9997 13.4103C17.0934 13.5033 17.1678 13.6139 17.2186 13.7357C17.2694 13.8576 17.2955 13.9883 17.2955 14.1203C17.2955 14.2523 17.2694 14.383 17.2186 14.5049C17.1678 14.6267 17.0934 14.7373 16.9997 14.8303Z" fill="#231F20"/>
</svg>
